<svg width="78" height="447" viewBox="0 0 78 447" fill="none" xmlns="http://www.w3.org/2000/svg">
<path d="M3.76632 0.695988C3.32228 -0.00338098 2.39536 -0.210363 1.69599 0.233681C0.996619 0.677724 0.789637 1.60464 1.23368 2.30401L3.76632 0.695988ZM1.00028 445.029C1.0163 445.857 1.70075 446.516 2.52902 446.5L16.0265 446.238C16.8548 446.222 17.5132 445.538 17.4972 444.71C17.4812 443.881 16.7967 443.223 15.9684 443.239L3.97069 443.471L3.73847 431.474C3.72244 430.645 3.038 429.987 2.20973 430.003C1.38145 430.019 0.723009 430.703 0.739037 431.532L1.00028 445.029ZM1.23368 2.30401C41.1073 65.1049 69.5168 146.108 73.7521 226.142C77.9869 306.167 58.0531 385.09 1.419 443.96L3.58098 446.04C60.9469 386.41 81.0131 306.583 76.7479 225.983C72.4832 145.392 43.8927 63.8951 3.76632 0.695988L1.23368 2.30401Z" fill="white"/>
</svg>
