<svg width="659" height="12" viewBox="0 0 659 12" fill="none" xmlns="http://www.w3.org/2000/svg">
<path fill-rule="evenodd" clip-rule="evenodd" d="M0 1.5V0.5L659 1V1.5C655.096 3.95812 621.009 14.1183 505.782 11.4986C495.605 11.4986 208.826 11.1886 145.991 11.1886C73.0665 11.1886 42.878 11.4841 15.3247 6.13022C5.67874 4.25602 1.84832 2.63198 0 1.5Z" fill="#FF490C"/>
<path fill-rule="evenodd" clip-rule="evenodd" d="M0 1.5V0.5L659 1V1.5C655.096 3.95812 621.009 14.1183 505.782 11.4986C495.605 11.4986 208.826 11.1886 145.991 11.1886C73.0665 11.1886 42.878 11.4841 15.3247 6.13022C5.67874 4.25602 1.84832 2.63198 0 1.5Z" fill="#FF490C" style="mix-blend-mode:multiply"/>
<path fill-rule="evenodd" clip-rule="evenodd" d="M0 1.5V0.5L659 1V1.5C655.096 3.95812 621.009 14.1183 505.782 11.4986C495.605 11.4986 208.826 11.1886 145.991 11.1886C73.0665 11.1886 42.878 11.4841 15.3247 6.13022C5.67874 4.25602 1.84832 2.63198 0 1.5Z" fill="#FF490C" style="mix-blend-mode:multiply"/>
<path fill-rule="evenodd" clip-rule="evenodd" d="M0 1.5V0.5L659 1V1.5C655.096 3.95812 621.009 14.1183 505.782 11.4986C495.605 11.4986 208.826 11.1886 145.991 11.1886C73.0665 11.1886 42.878 11.4841 15.3247 6.13022C5.67874 4.25602 1.84832 2.63198 0 1.5Z" fill="#FF490C" style="mix-blend-mode:multiply"/>
<path fill-rule="evenodd" clip-rule="evenodd" d="M0 1.5V0.5L659 1V1.5C655.096 3.95812 621.009 14.1183 505.782 11.4986C495.605 11.4986 208.826 11.1886 145.991 11.1886C73.0665 11.1886 42.878 11.4841 15.3247 6.13022C5.67874 4.25602 1.84832 2.63198 0 1.5Z" fill="#FF490C" style="mix-blend-mode:multiply"/>
<path fill-rule="evenodd" clip-rule="evenodd" d="M0 1.5V0.5L659 1V1.5C655.096 3.95812 621.009 14.1183 505.782 11.4986C495.605 11.4986 208.826 11.1886 145.991 11.1886C73.0665 11.1886 42.878 11.4841 15.3247 6.13022C5.67874 4.25602 1.84832 2.63198 0 1.5Z" fill="#FF490C"/>
</svg>
