<svg width="368" height="450" viewBox="0 0 368 450" fill="none" xmlns="http://www.w3.org/2000/svg">
<path d="M47.3911 83.2877C47.1551 82.7514 46.7688 82.4263 46.2322 82.3125C45.6996 82.1884 44.8819 82.241 43.7793 82.4702C42.6838 82.6962 41.7732 82.7896 41.0475 82.7505C40.329 82.7082 39.7355 82.5426 39.2669 82.2538C38.8055 81.9618 38.4489 81.5297 38.1972 80.9577C37.7787 80.0066 37.8251 79.026 38.3364 78.0157C38.8549 77.0022 39.7399 76.2201 40.9913 75.6694C42.307 75.0904 43.5219 74.9612 44.636 75.2817C45.7573 75.5992 46.5508 76.287 47.0166 77.3453L45.0215 78.2233C44.7824 77.6798 44.3439 77.3137 43.706 77.125C43.0753 76.9331 42.4095 76.9914 41.7087 77.2998C40.9865 77.6176 40.4909 78.0235 40.2217 78.5175C39.9526 79.0115 39.9298 79.5124 40.1532 80.0201C40.364 80.4992 40.7124 80.7769 41.1984 80.8532C41.6844 80.9296 42.4696 80.8614 43.5539 80.6488C44.6454 80.4331 45.5663 80.3436 46.3166 80.3805C47.0668 80.4173 47.6845 80.5894 48.1697 80.8965C48.6588 81.1934 49.0403 81.6529 49.3141 82.275C49.7704 83.3118 49.7222 84.3274 49.1697 85.3217C48.614 86.3089 47.6747 87.0935 46.3518 87.6757C45.4222 88.0848 44.5275 88.2822 43.6677 88.268C42.8079 88.2537 42.0451 88.0431 41.3795 87.6361C40.7179 87.2188 40.236 86.667 39.9339 85.9805L41.9182 85.1072C42.2466 85.7565 42.7441 86.1692 43.4106 86.3454C44.081 86.5113 44.8239 86.4148 45.639 86.0561C46.3899 85.7256 46.9244 85.3111 47.2428 84.8126C47.5651 84.3037 47.6145 83.7954 47.3911 83.2877ZM60.4144 79.861C60.0418 81.109 59.1082 82.0619 57.6137 82.7196C56.3766 83.264 55.2754 83.3218 54.31 82.8931C53.3486 82.4541 52.5544 81.5318 51.9273 80.1263L48.6042 72.5752L50.5885 71.7019L53.888 79.1994C54.6621 80.9585 55.7643 81.5233 57.1944 80.894C58.7103 80.2268 59.47 79.2182 59.4733 77.8681L55.7585 69.4267L57.7428 68.5535L62.8501 80.159L60.9624 80.9898L60.4144 79.861ZM70.351 75.1808C71.0589 74.8693 71.583 74.3826 71.9233 73.7207C72.2637 73.0588 72.3208 72.3934 72.0948 71.7247L73.9719 70.8986C74.2288 71.5794 74.2785 72.3129 74.1209 73.0993C73.9634 73.8856 73.6093 74.6133 73.0587 75.2824C72.5153 75.9483 71.8503 76.4543 71.0637 76.8005C69.4834 77.4959 67.9936 77.5242 66.5943 76.8853C65.199 76.2361 64.0985 74.9962 63.2929 73.1656L63.1466 72.8331C62.6494 71.7033 62.4146 70.6074 62.4423 69.5453C62.4699 68.4833 62.7629 67.5392 63.3212 66.7131C63.8866 65.8838 64.6985 65.2363 65.7568 64.7706C67.0582 64.1979 68.3095 64.1124 69.5106 64.5142C70.7188 64.9128 71.6253 65.7217 72.2301 66.9407L70.353 67.7668C69.9654 67.0411 69.4088 66.5521 68.6831 66.2995C67.9614 66.0367 67.2251 66.0705 66.4743 66.4009C65.4661 66.8447 64.8435 67.5539 64.6068 68.5287C64.374 69.4933 64.5597 70.662 65.1639 72.0349L65.3291 72.4104C65.9176 73.7475 66.646 74.6561 67.5145 75.136C68.3829 75.6159 69.3284 75.6308 70.351 75.1808ZM82.2886 69.9273C82.9965 69.6158 83.5207 69.1291 83.861 68.4672C84.2013 67.8052 84.2585 67.1399 84.0325 66.4712L85.9095 65.6451C86.1664 66.3259 86.2161 67.0594 86.0586 67.8457C85.901 68.6321 85.5469 69.3598 84.9964 70.0288C84.4529 70.6948 83.7879 71.2008 83.0014 71.547C81.4211 72.2424 79.9313 72.2707 78.5319 71.6318C77.1366 70.9826 76.0361 69.7427 75.2305 67.9121L75.0842 67.5796C74.587 66.4498 74.3522 65.3539 74.3799 64.2918C74.4076 63.2298 74.7006 62.2857 75.2588 61.4596C75.8243 60.6303 76.6362 59.9828 77.6945 59.5171C78.9959 58.9443 80.2471 58.8589 81.4482 59.2607C82.6565 59.6593 83.563 60.4682 84.1677 61.6872L82.2907 62.5133C81.9031 61.7876 81.3464 61.2985 80.6207 61.046C79.899 60.7832 79.1628 60.817 78.4119 61.1474C77.4037 61.5911 76.7812 62.3004 76.5444 63.2752C76.3116 64.2398 76.4974 65.4085 77.1016 66.7814L77.2668 67.1568C77.8552 68.494 78.5837 69.4026 79.4521 69.8825C80.3206 70.3624 81.2661 70.3773 82.2886 69.9273ZM95.0999 66.2226C93.5268 66.915 92.0202 66.9634 90.5803 66.368C89.1372 65.7654 88.0349 64.5989 87.2733 62.8684L87.1128 62.5037C86.6062 61.3524 86.3727 60.2303 86.4124 59.1374C86.4561 58.0342 86.7595 57.0556 87.3226 56.2017C87.8898 55.3376 88.6346 54.7025 89.557 54.2966C91.0658 53.6326 92.4572 53.6135 93.7313 54.2393C95.0053 54.865 96.0499 56.1039 96.8649 57.9559L97.2284 58.7818L89.3662 62.2418C89.8983 63.3734 90.6383 64.153 91.5863 64.5809C92.5382 64.9984 93.5076 64.9901 94.4944 64.5558C95.1952 64.2474 95.7257 63.8432 96.0861 63.3432C96.4465 62.8432 96.7052 62.277 96.8622 61.6445L98.4896 62.055C98.1748 63.9775 97.0449 65.3667 95.0999 66.2226ZM90.2745 55.927C89.4736 56.2794 88.9305 56.8684 88.6451 57.6939C88.3565 58.5123 88.3792 59.4754 88.7131 60.5832L94.5266 58.0247L94.4605 57.8746C93.9596 56.8915 93.3448 56.2317 92.6163 55.895C91.8846 55.5513 91.104 55.5619 90.2745 55.927ZM107.68 56.7558C107.444 56.2195 107.058 55.8944 106.521 55.7806C105.988 55.6565 105.171 55.709 104.068 55.9382C102.973 56.1643 102.062 56.2577 101.336 56.2186C100.618 56.1763 100.024 56.0107 99.5558 55.7219C99.0944 55.4299 98.7378 54.9978 98.4861 54.4258C98.0675 53.4747 98.114 52.494 98.6253 51.4837C99.1438 50.4703 100.029 49.6882 101.28 49.1375C102.596 48.5585 103.811 48.4292 104.925 48.7498C106.046 49.0672 106.84 49.7551 107.305 50.8134L105.31 51.6914C105.071 51.1479 104.633 50.7818 103.995 50.5931C103.364 50.4012 102.698 50.4594 101.998 50.7678C101.275 51.0857 100.78 51.4916 100.511 51.9856C100.241 52.4796 100.219 52.9804 100.442 53.4881C100.653 53.9672 101.001 54.245 101.487 54.3213C101.973 54.3976 102.758 54.3295 103.843 54.1169C104.934 53.9012 105.855 53.8117 106.605 53.8486C107.356 53.8854 107.973 54.0574 108.459 54.3646C108.948 54.6615 109.329 55.121 109.603 55.7431C110.059 56.7799 110.011 57.7955 109.459 58.7898C108.903 59.7769 107.964 60.5616 106.641 61.1438C105.711 61.5529 104.816 61.7503 103.957 61.736C103.097 61.7218 102.334 61.5112 101.668 61.1042C101.007 60.6869 100.525 60.135 100.223 59.4486L102.207 58.5753C102.536 59.2246 103.033 59.6373 103.699 59.8135C104.37 59.9793 105.113 59.8829 105.928 59.5241C106.679 59.1937 107.213 58.7792 107.532 58.2806C107.854 57.7718 107.903 57.2635 107.68 56.7558ZM119.446 51.5778C119.21 51.0415 118.824 50.7164 118.287 50.6026C117.754 50.4785 116.937 50.5311 115.834 50.7602C114.739 50.9863 113.828 51.0797 113.102 51.0406C112.384 50.9983 111.79 50.8327 111.322 50.5439C110.86 50.2519 110.504 49.8198 110.252 49.2478C109.834 48.2967 109.88 47.3161 110.391 46.3057C110.91 45.2923 111.795 44.5102 113.046 43.9595C114.362 43.3805 115.577 43.2512 116.691 43.5718C117.812 43.8892 118.606 44.5771 119.071 45.6354L117.076 46.5134C116.837 45.9699 116.399 45.6038 115.761 45.4151C115.13 45.2232 114.464 45.2815 113.764 45.5899C113.041 45.9077 112.546 46.3136 112.277 46.8076C112.008 47.3016 111.985 47.8025 112.208 48.3102C112.419 48.7893 112.767 49.067 113.253 49.1433C113.739 49.2196 114.524 49.1515 115.609 48.9389C116.7 48.7232 117.621 48.6337 118.371 48.6706C119.122 48.7074 119.739 48.8794 120.225 49.1866C120.714 49.4835 121.095 49.943 121.369 50.5651C121.825 51.6019 121.777 52.6175 121.225 53.6118C120.669 54.599 119.73 55.3836 118.407 55.9658C117.477 56.3749 116.582 56.5723 115.723 56.5581C114.863 56.5438 114.1 56.3332 113.434 55.9262C112.773 55.5089 112.291 54.9571 111.989 54.2706L113.973 53.3973C114.302 54.0466 114.799 54.4593 115.465 54.6355C116.136 54.8013 116.879 54.7049 117.694 54.3462C118.445 54.0157 118.979 53.6012 119.298 53.1026C119.62 52.5938 119.669 52.0855 119.446 51.5778Z" fill="white"/>
<path d="M199.153 69.2708C198.938 69.0923 198.666 68.7256 198.336 68.1708C197.836 69.5349 196.945 70.4986 195.665 71.0619C194.521 71.5654 193.439 71.6574 192.42 71.338C191.404 71.0083 190.677 70.3464 190.24 69.3525C189.708 68.144 189.753 67.0059 190.376 65.9381C191.003 64.86 192.149 63.9543 193.815 63.2211L195.746 62.3714L195.345 61.4597C195.039 60.7661 194.59 60.3067 193.996 60.0817C193.398 59.8494 192.696 59.9111 191.888 60.2667C191.18 60.5783 190.665 61.0182 190.343 61.5866C190.021 62.155 189.972 62.693 190.196 63.2007L188.201 64.0787C187.946 63.4995 187.904 62.852 188.076 62.1364C188.251 61.4104 188.62 60.7359 189.182 60.1129C189.752 59.4867 190.459 58.988 191.302 58.6166C192.639 58.0282 193.835 57.9032 194.889 58.2418C195.939 58.5733 196.737 59.3191 197.282 60.4792L199.632 65.8207C200.101 66.8862 200.61 67.6738 201.159 68.1834L201.234 68.3551L199.153 69.2708ZM195.195 69.2076C195.817 68.9338 196.336 68.5133 196.752 67.946C197.168 67.3788 197.388 66.7827 197.412 66.1577L196.364 63.7765L194.809 64.461C192.378 65.5309 191.475 66.7774 192.101 68.2003C192.375 68.8225 192.797 69.2174 193.365 69.3853C193.934 69.5532 194.544 69.4939 195.195 69.2076ZM201.136 54.5453L201.756 55.8088C202.166 54.4332 203.093 53.4276 204.538 52.792C206.161 52.0776 207.54 52.2135 208.673 53.1997C208.814 52.472 209.116 51.8012 209.58 51.1874C210.051 50.5704 210.709 50.0762 211.553 49.7049C214.098 48.5846 215.986 49.3629 217.215 52.0398L220.637 59.8162L218.653 60.6895L215.283 53.0311C214.918 52.2016 214.456 51.6665 213.898 51.4256C213.336 51.1777 212.608 51.2504 211.715 51.6438C210.978 51.9679 210.464 52.4586 210.173 53.1159C209.879 53.7661 209.856 54.4804 210.105 55.2586L213.494 62.9599L211.499 63.8379L208.152 56.2332C207.409 54.5456 206.212 54.0653 204.56 54.7922C203.259 55.3649 202.612 56.3109 202.621 57.6301L206.35 66.1037L204.366 66.9769L199.258 55.3713L201.136 54.5453ZM231.408 48.3033C232.188 50.0767 232.409 51.6826 232.069 53.1211C231.725 54.5524 230.867 55.5702 229.494 56.1744C228.028 56.8195 226.667 56.7999 225.41 56.1155L225.903 57.4987L224.08 58.3012L216.829 41.826L218.814 40.9527L221.519 47.0987C221.882 45.7524 222.768 44.7692 224.177 44.1493C225.585 43.5293 226.925 43.5759 228.194 44.2889C229.471 44.9987 230.517 46.2797 231.332 48.1317L231.408 48.3033ZM229.324 48.9513C228.73 47.5998 228.009 46.6707 227.163 46.1639C226.317 45.6571 225.404 45.6193 224.424 46.0504C223.116 46.6263 222.443 47.6479 222.406 49.1152L224.615 54.135C225.758 55.0832 226.973 55.274 228.26 54.7076C229.211 54.289 229.789 53.5951 229.994 52.6257C230.199 51.6563 229.976 50.4315 229.324 48.9513ZM239.01 51.7307L237.026 52.6039L231.918 40.9984L233.903 40.1251L239.01 51.7307ZM230.403 37.9908C230.261 37.669 230.238 37.3548 230.334 37.0482C230.436 36.7384 230.681 36.4985 231.067 36.3286C231.453 36.1587 231.795 36.1405 232.093 36.2741C232.39 36.4076 232.61 36.6353 232.752 36.9571C232.893 37.2788 232.911 37.5911 232.805 37.8937C232.7 38.1963 232.454 38.4326 232.068 38.6025C231.681 38.7725 231.341 38.7942 231.046 38.6678C230.759 38.5383 230.544 38.3126 230.403 37.9908ZM238.983 34.5348L240.22 37.345L242.387 36.3915L243.062 37.9254L240.895 38.8789L244.062 46.076C244.267 46.5408 244.518 46.8487 244.814 46.9997C245.108 47.1436 245.487 47.1133 245.952 46.9087C246.181 46.808 246.477 46.6266 246.84 46.3646L247.548 47.9735C247.089 48.3462 246.612 48.6412 246.119 48.8583C245.232 49.2485 244.446 49.2746 243.759 48.9366C243.073 48.5985 242.512 47.9361 242.078 46.9493L238.911 39.7521L236.798 40.682L236.123 39.1482L238.236 38.2183L236.999 35.4081L238.983 34.5348ZM252.417 45.8307L250.432 46.7039L245.325 35.0984L247.309 34.2251L252.417 45.8307ZM243.809 32.0908C243.668 31.769 243.645 31.4548 243.74 31.1482C243.843 30.8384 244.087 30.5985 244.474 30.4286C244.86 30.2587 245.202 30.2405 245.499 30.374C245.797 30.5076 246.017 30.7353 246.158 31.0571C246.3 31.3788 246.318 31.691 246.212 31.9937C246.106 32.2963 245.86 32.5326 245.474 32.7025C245.088 32.8725 244.748 32.8942 244.453 32.7678C244.166 32.6382 243.951 32.4126 243.809 32.0908ZM252.915 38.5567C252.415 37.4197 252.187 36.2996 252.23 35.1963C252.281 34.09 252.595 33.1154 253.171 32.2727C253.755 31.4269 254.558 30.7789 255.581 30.3289C257.161 29.6335 258.678 29.6188 260.132 30.2849C261.593 30.9478 262.724 32.1874 263.523 34.0037L263.584 34.1431C264.081 35.2729 264.31 36.3843 264.271 37.4773C264.235 38.5599 263.923 39.5293 263.335 40.3854C262.755 41.2384 261.942 41.8947 260.898 42.3541C259.325 43.0464 257.808 43.0611 256.347 42.3982C254.893 41.7321 253.77 40.4981 252.977 38.6961L252.915 38.5567ZM255.014 37.9146C255.581 39.2018 256.332 40.1045 257.269 40.6227C258.212 41.1378 259.185 41.175 260.186 40.7345C261.194 40.2908 261.822 39.545 262.069 38.4973C262.313 37.4423 262.122 36.2034 261.496 34.7804C260.936 33.5076 260.179 32.6116 259.225 32.0925C258.275 31.5631 257.299 31.5187 256.298 31.9593C255.319 32.3904 254.7 33.1279 254.442 34.1716C254.185 35.2154 254.375 36.4631 255.014 37.9146ZM265.779 26.0971L266.485 27.5275C266.881 26.0218 267.794 24.9543 269.224 24.3249C271.677 23.2455 273.523 24.0848 274.762 26.8426L278.137 34.5117L276.153 35.385L272.773 27.7052C272.398 26.8717 271.932 26.3381 271.377 26.1045C270.829 25.8677 270.158 25.9239 269.364 26.2732C268.721 26.5564 268.231 26.9767 267.896 27.5339C267.561 28.0911 267.38 28.7084 267.354 29.3857L270.993 37.6555L269.009 38.5287L263.902 26.9232L265.779 26.0971ZM286.971 26.9493C286.735 26.413 286.349 26.0879 285.813 25.9741C285.28 25.85 284.462 25.9026 283.36 26.1317C282.264 26.3578 281.354 26.4512 280.628 26.4121C279.909 26.3698 279.316 26.2042 278.847 25.9154C278.386 25.6234 278.029 25.1913 277.778 24.6193C277.359 23.6682 277.405 22.6875 277.917 21.6772C278.435 20.6638 279.32 19.8817 280.572 19.331C281.887 18.752 283.102 18.6227 284.216 18.9433C285.338 19.2607 286.131 19.9486 286.597 21.0069L284.602 21.8849C284.363 21.3414 283.924 20.9753 283.286 20.7866C282.656 20.5947 281.99 20.653 281.289 20.9613C280.567 21.2792 280.071 21.6851 279.802 22.1791C279.533 22.6731 279.51 23.174 279.734 23.6817C279.944 24.1608 280.293 24.4385 280.779 24.5148C281.265 24.5911 282.05 24.523 283.134 24.3104C284.226 24.0947 285.147 24.0052 285.897 24.0421C286.647 24.0789 287.265 24.2509 287.75 24.5581C288.239 24.855 288.621 25.3145 288.894 25.9366C289.351 26.9734 289.303 27.989 288.75 28.9833C288.194 29.9704 287.255 30.7551 285.932 31.3373C285.003 31.7464 284.108 31.9438 283.248 31.9296C282.388 31.9153 281.626 31.7047 280.96 31.2977C280.298 30.8804 279.816 30.3286 279.514 29.6421L281.499 28.7688C281.827 29.4181 282.324 29.8308 282.991 30.007C283.661 30.1728 284.404 30.0764 285.219 29.7176C285.97 29.3872 286.505 28.9727 286.823 28.4741C287.145 27.9653 287.195 27.457 286.971 26.9493Z" fill="white"/>
<path d="M285.434 118.866C285.548 118.292 285.418 117.804 285.044 117.403C284.679 116.996 283.979 116.57 282.944 116.125C281.917 115.681 281.118 115.236 280.546 114.787C279.982 114.34 279.59 113.864 279.372 113.359C279.162 112.855 279.118 112.297 279.24 111.684C279.443 110.664 280.043 109.888 281.042 109.354C282.048 108.821 283.221 108.688 284.562 108.955C285.972 109.235 287.041 109.827 287.77 110.728C288.506 111.632 288.762 112.65 288.536 113.784L286.398 113.359C286.514 112.776 286.365 112.225 285.951 111.705C285.544 111.186 284.965 110.851 284.214 110.702C283.441 110.548 282.802 110.596 282.298 110.846C281.794 111.097 281.488 111.494 281.38 112.038C281.278 112.551 281.404 112.978 281.758 113.32C282.112 113.661 282.794 114.056 283.805 114.504C284.822 114.953 285.628 115.408 286.221 115.869C286.815 116.329 287.222 116.825 287.443 117.354C287.673 117.878 287.722 118.473 287.59 119.14C287.369 120.251 286.747 121.055 285.724 121.553C284.702 122.042 283.483 122.146 282.065 121.864C281.069 121.666 280.223 121.315 279.527 120.81C278.831 120.305 278.327 119.695 278.015 118.979C277.713 118.258 277.634 117.53 277.781 116.794L279.907 117.217C279.804 117.937 279.974 118.561 280.419 119.087C280.873 119.608 281.537 119.955 282.41 120.129C283.215 120.289 283.891 120.256 284.437 120.03C284.993 119.798 285.325 119.41 285.434 118.866ZM297.822 124.761C297.748 124.491 297.735 124.034 297.784 123.391C296.591 124.221 295.309 124.499 293.937 124.227C292.711 123.983 291.772 123.437 291.12 122.591C290.478 121.738 290.262 120.779 290.474 119.714C290.732 118.419 291.422 117.513 292.544 116.995C293.676 116.472 295.135 116.388 296.92 116.743L298.989 117.155L299.183 116.178C299.331 115.434 299.226 114.8 298.869 114.275C298.513 113.742 297.902 113.39 297.036 113.217C296.277 113.066 295.603 113.131 295.014 113.412C294.424 113.693 294.075 114.106 293.967 114.65L291.829 114.224C291.953 113.604 292.29 113.05 292.841 112.562C293.401 112.068 294.091 111.727 294.909 111.539C295.734 111.353 296.599 111.35 297.503 111.53C298.936 111.815 299.987 112.398 300.656 113.28C301.326 114.155 301.552 115.223 301.332 116.486L300.193 122.209C299.966 123.351 299.931 124.288 300.088 125.02L300.052 125.204L297.822 124.761ZM294.616 122.438C295.282 122.571 295.949 122.524 296.615 122.298C297.281 122.072 297.804 121.71 298.182 121.212L298.689 118.66L297.023 118.329C294.418 117.81 292.963 118.313 292.66 119.838C292.527 120.505 292.646 121.07 293.015 121.534C293.385 121.998 293.919 122.299 294.616 122.438ZM305.729 126.334L303.603 125.911L307.115 108.257L309.242 108.68L305.729 126.334ZM317.291 128.634C317.217 128.365 317.204 127.908 317.253 127.265C316.06 128.095 314.778 128.373 313.406 128.1C312.18 127.857 311.241 127.311 310.589 126.465C309.947 125.612 309.731 124.653 309.943 123.588C310.201 122.293 310.891 121.387 312.013 120.869C313.145 120.346 314.604 120.262 316.389 120.617L318.458 121.028L318.652 120.051C318.8 119.308 318.695 118.674 318.338 118.149C317.982 117.616 317.371 117.263 316.505 117.091C315.746 116.94 315.072 117.005 314.483 117.286C313.893 117.567 313.544 117.98 313.436 118.524L311.298 118.098C311.422 117.478 311.759 116.923 312.31 116.436C312.87 115.942 313.559 115.601 314.377 115.413C315.203 115.227 316.068 115.224 316.972 115.404C318.405 115.689 319.456 116.272 320.125 117.154C320.795 118.028 321.021 119.097 320.801 120.36L319.662 126.083C319.435 127.225 319.4 128.162 319.557 128.894L319.521 129.078L317.291 128.634ZM314.085 126.312C314.751 126.444 315.418 126.398 316.084 126.172C316.75 125.946 317.273 125.584 317.65 125.086L318.158 122.534L316.492 122.202C313.886 121.684 312.432 122.187 312.129 123.712C311.996 124.379 312.115 124.944 312.484 125.408C312.854 125.872 313.388 126.173 314.085 126.312ZM330.994 120.416C330.682 120.298 330.339 120.202 329.964 120.128C328.569 119.85 327.505 120.256 326.77 121.344L325.014 130.171L322.888 129.748L325.362 117.312L327.431 117.724L327.18 119.167C328.098 118.195 329.197 117.836 330.477 118.091C330.89 118.173 331.194 118.289 331.387 118.439L330.994 120.416ZM336.23 129.165L340.981 120.42L343.257 120.873L335.401 134.233C334.215 136.148 332.78 136.938 331.094 136.602L330.699 136.488L329.935 136.181L330.278 134.457L330.844 134.617C331.564 134.76 332.153 134.726 332.609 134.514C333.073 134.304 333.512 133.838 333.927 133.116L334.649 131.945L332.66 118.764L334.982 119.226L336.23 129.165Z" fill="white"/>
<path d="M304.055 324.169C304.828 324.16 305.501 323.918 306.074 323.443C306.647 322.968 306.961 322.378 307.015 321.674L309.066 321.652C309.035 322.379 308.793 323.073 308.339 323.734C307.886 324.395 307.274 324.926 306.505 325.325C305.744 325.724 304.934 325.928 304.074 325.938C302.348 325.957 300.967 325.398 299.93 324.261C298.902 323.117 298.377 321.544 298.354 319.544L298.35 319.181C298.337 317.947 298.551 316.847 298.993 315.881C299.436 314.915 300.076 314.162 300.913 313.621C301.759 313.08 302.76 312.803 303.916 312.791C305.338 312.775 306.522 313.187 307.469 314.028C308.424 314.869 308.94 315.969 309.018 317.328L306.967 317.351C306.895 316.531 306.575 315.863 306.007 315.345C305.447 314.82 304.756 314.563 303.936 314.572C302.834 314.584 301.983 314.992 301.383 315.796C300.79 316.591 300.502 317.739 300.519 319.239L300.524 319.649C300.54 321.11 300.853 322.232 301.464 323.014C302.074 323.796 302.938 324.181 304.055 324.169ZM319.855 325.528C319.728 325.279 319.621 324.835 319.536 324.195C318.54 325.253 317.343 325.79 315.944 325.806C314.694 325.82 313.663 325.48 312.851 324.785C312.046 324.083 311.637 323.189 311.625 322.104C311.611 320.783 312.099 319.754 313.091 319.017C314.091 318.271 315.501 317.888 317.321 317.868L319.43 317.844L319.419 316.848C319.41 316.091 319.177 315.492 318.719 315.051C318.261 314.603 317.59 314.384 316.708 314.394C315.934 314.403 315.288 314.605 314.769 315.002C314.25 315.398 313.994 315.874 314 316.428L311.82 316.453C311.813 315.82 312.029 315.208 312.468 314.617C312.914 314.018 313.518 313.543 314.28 313.191C315.05 312.838 315.895 312.657 316.817 312.647C318.278 312.63 319.427 312.985 320.263 313.71C321.099 314.427 321.54 315.426 321.585 316.707L321.65 322.543C321.663 323.707 321.822 324.631 322.127 325.315L322.129 325.502L319.855 325.528ZM316.24 323.916C316.919 323.908 317.562 323.725 318.167 323.367C318.773 323.008 319.209 322.546 319.476 321.981L319.447 319.379L317.748 319.398C315.092 319.428 313.772 320.22 313.79 321.775C313.797 322.454 314.03 322.983 314.487 323.361C314.945 323.739 315.529 323.923 316.24 323.916ZM331.571 314.662C331.242 314.611 330.886 314.588 330.503 314.592C329.081 314.608 328.123 315.224 327.629 316.44L327.73 325.44L325.562 325.464L325.42 312.785L327.53 312.762L327.581 314.226C328.279 313.085 329.281 312.508 330.585 312.493C331.007 312.488 331.328 312.54 331.548 312.646L331.571 314.662ZM339.204 325.546C337.485 325.565 336.08 325.019 334.99 323.906C333.899 322.785 333.343 321.279 333.322 319.389L333.318 318.99C333.304 317.733 333.529 316.609 333.995 315.619C334.468 314.622 335.131 313.841 335.985 313.277C336.845 312.705 337.78 312.413 338.788 312.402C340.436 312.383 341.723 312.912 342.649 313.988C343.575 315.063 344.05 316.613 344.072 318.636L344.082 319.538L335.493 319.634C335.538 320.884 335.913 321.891 336.617 322.657C337.328 323.415 338.223 323.788 339.301 323.776C340.067 323.767 340.713 323.604 341.241 323.285C341.769 322.967 342.229 322.548 342.622 322.028L343.957 323.044C342.913 324.688 341.328 325.523 339.204 325.546ZM338.807 314.183C337.932 314.193 337.202 314.521 336.615 315.168C336.028 315.808 335.671 316.702 335.543 317.852L341.895 317.781L341.893 317.617C341.818 316.517 341.512 315.668 340.974 315.073C340.436 314.469 339.714 314.173 338.807 314.183ZM352.409 325.399C350.691 325.418 349.286 324.871 348.195 323.758C347.105 322.638 346.549 321.132 346.528 319.242L346.523 318.843C346.509 317.585 346.735 316.462 347.201 315.472C347.674 314.475 348.337 313.694 349.19 313.13C350.051 312.557 350.985 312.266 351.993 312.254C353.642 312.236 354.929 312.765 355.855 313.84C356.781 314.916 357.255 316.466 357.278 318.489L357.288 319.391L348.699 319.487C348.744 320.737 349.118 321.744 349.822 322.51C350.534 323.268 351.429 323.64 352.507 323.628C353.272 323.62 353.919 323.456 354.447 323.138C354.975 322.82 355.435 322.4 355.827 321.88L357.163 322.897C356.119 324.541 354.534 325.375 352.409 325.399ZM352.013 314.036C351.138 314.045 350.407 314.374 349.821 315.021C349.234 315.66 348.877 316.555 348.749 317.705L355.1 317.634L355.098 317.47C355.024 316.369 354.717 315.521 354.179 314.926C353.641 314.322 352.919 314.025 352.013 314.036ZM366.36 314.274C366.031 314.223 365.675 314.2 365.293 314.204C363.871 314.22 362.913 314.836 362.419 316.053L362.519 325.052L360.351 325.076L360.21 312.397L362.319 312.374L362.37 313.838C363.069 312.697 364.07 312.12 365.375 312.105C365.797 312.101 366.118 312.152 366.337 312.259L366.36 314.274Z" fill="white"/>
<path d="M54.1263 426.836C54.886 426.691 55.5059 426.334 55.986 425.765C56.4661 425.196 56.671 424.561 56.6007 423.858L58.6152 423.474C58.7129 424.195 58.5969 424.921 58.267 425.652C57.9371 426.383 57.4289 427.013 56.7423 427.542C56.0634 428.069 55.3019 428.413 54.4577 428.574C52.7617 428.897 51.3035 428.591 50.083 427.654C48.8688 426.709 48.0744 425.254 47.6998 423.289L47.6318 422.932C47.4006 421.72 47.4175 420.599 47.6827 419.57C47.9478 418.541 48.445 417.687 49.1743 417.007C49.9113 416.326 50.8477 415.877 51.9835 415.66C53.3802 415.394 54.6188 415.591 55.6992 416.252C56.7873 416.912 57.4893 417.903 57.8053 419.227L55.7908 419.611C55.5758 418.817 55.143 418.215 54.4924 417.806C53.848 417.388 53.1229 417.256 52.3171 417.41C51.2351 417.616 50.4694 418.168 50.02 419.065C49.5769 419.953 49.4958 421.133 49.7767 422.607L49.8536 423.01C50.1272 424.445 50.6334 425.493 51.3721 426.156C52.1108 426.818 53.0289 427.045 54.1263 426.836ZM66.2395 415.161C65.9069 415.169 65.5526 415.208 65.1766 415.28C63.7798 415.546 62.9455 416.322 62.6735 417.607L64.3592 426.447L62.2296 426.853L59.8547 414.398L61.9267 414.003L62.2356 415.435C62.7218 414.189 63.6057 413.444 64.8873 413.2C65.3017 413.121 65.6266 413.115 65.8619 413.181L66.2395 415.161ZM75.6722 424.529C73.9839 424.851 72.5048 424.56 71.2351 423.657C69.9639 422.746 69.1512 421.362 68.7971 419.505L68.7225 419.113C68.4869 417.878 68.511 416.732 68.7947 415.676C69.0847 414.61 69.5998 413.725 70.3401 413.019C71.0866 412.304 71.9548 411.852 72.9448 411.663C74.564 411.355 75.9243 411.648 77.0256 412.544C78.1269 413.439 78.867 414.881 79.246 416.868L79.415 417.755L70.9772 419.364C71.242 420.586 71.7883 421.511 72.6162 422.141C73.4503 422.761 74.3969 422.97 75.4559 422.769C76.208 422.625 76.8157 422.35 77.279 421.944C77.7423 421.537 78.1214 421.043 78.4162 420.462L79.9101 421.227C79.1722 423.03 77.7596 424.131 75.6722 424.529ZM73.2784 413.413C72.4189 413.577 71.7575 414.029 71.2942 414.77C70.8295 415.503 70.6356 416.446 70.7126 417.601L76.9518 416.411L76.921 416.25C76.6533 415.18 76.2022 414.399 75.5677 413.907C74.9317 413.408 74.1686 413.243 73.2784 413.413ZM91.1222 421.344C90.9525 421.122 90.7694 420.704 90.5726 420.089C89.7787 421.306 88.6949 422.046 87.3213 422.308C86.0934 422.542 85.0184 422.389 84.0962 421.849C83.1803 421.3 82.6206 420.492 82.4172 419.425C82.1699 418.128 82.4694 417.029 83.3156 416.128C84.1681 415.218 85.4883 414.592 87.2764 414.252L89.3485 413.856L89.1619 412.878C89.02 412.134 88.6847 411.585 88.1562 411.233C87.6262 410.872 86.9277 410.775 86.0605 410.94C85.3007 411.085 84.7003 411.398 84.2593 411.88C83.8183 412.362 83.6498 412.875 83.7536 413.42L81.6125 413.828C81.494 413.207 81.5986 412.566 81.9263 411.907C82.2602 411.239 82.771 410.665 83.4587 410.184C84.154 409.701 84.9545 409.374 85.86 409.201C87.2951 408.927 88.4882 409.074 89.4392 409.64C90.3888 410.198 90.9989 411.104 91.2695 412.357L92.3626 418.089C92.5806 419.233 92.8998 420.115 93.3202 420.734L93.3554 420.918L91.1222 421.344ZM87.2787 420.395C87.9463 420.268 88.5465 419.974 89.0793 419.515C89.612 419.055 89.96 418.524 90.1233 417.92L89.636 415.364L87.9668 415.683C85.3576 416.18 84.1986 417.193 84.4898 418.72C84.6171 419.387 84.9391 419.867 85.4559 420.158C85.9727 420.449 86.5803 420.528 87.2787 420.395ZM96.6671 404.253L97.2422 407.269L99.5675 406.826L99.8813 408.472L97.556 408.915L99.0288 416.639C99.1239 417.138 99.2993 417.495 99.5547 417.708C99.8088 417.914 100.185 417.97 100.684 417.875C100.93 417.828 101.258 417.717 101.671 417.543L102 419.27C101.469 419.53 100.939 419.711 100.409 419.812C99.4576 419.993 98.6852 419.843 98.092 419.359C97.4987 418.876 97.1012 418.105 96.8992 417.045L95.4264 409.321L93.1587 409.754L92.8448 408.108L95.1126 407.675L94.5375 404.659L96.6671 404.253ZM107.226 418.274L105.096 418.68L102.721 406.224L104.851 405.818L107.226 418.274ZM101.919 402.954C101.853 402.608 101.901 402.297 102.063 402.02C102.232 401.741 102.524 401.562 102.938 401.483C103.353 401.404 103.69 401.463 103.95 401.66C104.211 401.856 104.374 402.128 104.44 402.473C104.505 402.818 104.453 403.127 104.282 403.398C104.111 403.669 103.818 403.844 103.404 403.923C102.989 404.002 102.653 403.947 102.394 403.758C102.143 403.567 101.984 403.299 101.919 402.954ZM114.675 413.859L115.936 403.705L118.111 403.29L116.02 416.597L114.397 416.906L107.509 405.311L109.685 404.897L114.675 413.859ZM128.058 414.54C126.37 414.862 124.891 414.571 123.621 413.668C122.35 412.757 121.537 411.373 121.183 409.516L121.108 409.125C120.873 407.889 120.897 406.743 121.181 405.687C121.471 404.622 121.986 403.736 122.726 403.03C123.472 402.315 124.341 401.864 125.331 401.675C126.95 401.366 128.31 401.659 129.411 402.555C130.513 403.451 131.253 404.892 131.632 406.88L131.801 407.766L123.363 409.375C123.628 410.597 124.174 411.523 125.002 412.152C125.836 412.773 126.783 412.982 127.842 412.78C128.594 412.637 129.202 412.362 129.665 411.955C130.128 411.549 130.507 411.055 130.802 410.474L132.296 411.239C131.558 413.042 130.146 414.142 128.058 414.54ZM125.664 403.425C124.805 403.588 124.143 404.041 123.68 404.781C123.215 405.514 123.022 406.458 123.099 407.612L129.338 406.422L129.307 406.261C129.039 405.191 128.588 404.41 127.954 403.919C127.318 403.42 126.555 403.255 125.664 403.425ZM146.148 399.925C145.815 399.932 145.461 399.972 145.085 400.044C143.688 400.31 142.854 401.085 142.582 402.37L144.267 411.211L142.138 411.617L139.763 399.162L141.835 398.767L142.144 400.199C142.63 398.953 143.514 398.208 144.795 397.963C145.21 397.884 145.535 397.878 145.77 397.945L146.148 399.925ZM155.58 409.292C153.892 409.614 152.413 409.324 151.143 408.42C149.872 407.51 149.059 406.126 148.705 404.268L148.631 403.877C148.395 402.642 148.419 401.496 148.703 400.439C148.993 399.374 149.508 398.488 150.248 397.783C150.995 397.068 151.863 396.616 152.853 396.427C154.472 396.118 155.832 396.412 156.934 397.307C158.035 398.203 158.775 399.644 159.154 401.632L159.323 402.518L150.885 404.127C151.15 405.349 151.697 406.275 152.524 406.904C153.358 407.525 154.305 407.734 155.364 407.532C156.116 407.389 156.724 407.114 157.187 406.707C157.65 406.301 158.03 405.807 158.324 405.226L159.818 405.991C159.08 407.794 157.668 408.894 155.58 409.292ZM153.187 398.177C152.327 398.341 151.666 398.793 151.202 399.533C150.738 400.266 150.544 401.21 150.621 402.364L156.86 401.175L156.829 401.013C156.562 399.943 156.11 399.162 155.476 398.671C154.84 398.172 154.077 398.007 153.187 398.177ZM169.963 402.887C169.853 402.312 169.55 401.909 169.052 401.677C168.561 401.437 167.752 401.305 166.626 401.281C165.508 401.255 164.6 401.142 163.901 400.942C163.211 400.739 162.669 400.445 162.277 400.058C161.893 399.67 161.643 399.169 161.526 398.555C161.331 397.535 161.596 396.589 162.321 395.719C163.054 394.848 164.091 394.284 165.434 394.028C166.846 393.759 168.059 393.905 169.073 394.468C170.095 395.028 170.714 395.877 170.93 397.012L168.789 397.421C168.678 396.837 168.333 396.382 167.754 396.055C167.182 395.727 166.52 395.634 165.768 395.778C164.993 395.926 164.419 396.21 164.046 396.631C163.673 397.052 163.538 397.535 163.642 398.08C163.74 398.594 164.017 398.943 164.474 399.126C164.93 399.31 165.711 399.419 166.815 399.455C167.927 399.49 168.845 399.609 169.568 399.813C170.291 400.018 170.854 400.324 171.258 400.732C171.668 401.131 171.937 401.664 172.064 402.332C172.276 403.445 172.002 404.423 171.24 405.269C170.477 406.106 169.386 406.66 167.966 406.931C166.969 407.121 166.052 407.113 165.218 406.906C164.383 406.699 163.687 406.323 163.129 405.777C162.578 405.222 162.232 404.576 162.092 403.84L164.221 403.433C164.396 404.14 164.788 404.654 165.398 404.975C166.014 405.287 166.76 405.359 167.635 405.192C168.441 405.039 169.054 404.755 169.476 404.34C169.905 403.917 170.067 403.432 169.963 402.887ZM183.423 402.468C182.78 403.601 181.657 404.32 180.053 404.626C178.725 404.879 177.639 404.689 176.794 404.054C175.956 403.411 175.388 402.334 175.093 400.824L173.547 392.72L175.677 392.314L177.211 400.36C177.571 402.248 178.519 403.046 180.053 402.753C181.68 402.443 182.647 401.63 182.953 400.315L181.225 391.256L183.355 390.85L185.73 403.305L183.704 403.691L183.423 402.468ZM189.076 389.759L189.397 391.129C190.105 389.881 191.234 389.109 192.784 388.813C194.527 388.481 195.84 388.923 196.723 390.138C197.024 389.46 197.469 388.874 198.058 388.38C198.656 387.885 199.407 387.55 200.313 387.378C203.045 386.857 204.71 388.039 205.308 390.923L206.899 399.269L204.769 399.675L203.202 391.456C203.032 390.565 202.702 389.94 202.212 389.58C201.721 389.213 200.995 389.121 200.036 389.304C199.245 389.454 198.635 389.817 198.204 390.393C197.771 390.96 197.589 391.651 197.656 392.465L199.232 400.73L197.091 401.139L195.535 392.977C195.19 391.166 194.131 390.429 192.358 390.768C190.961 391.034 190.119 391.811 189.832 393.098L191.566 402.192L189.436 402.598L187.061 390.143L189.076 389.759ZM215.806 397.809C214.118 398.131 212.639 397.84 211.369 396.937C210.098 396.026 209.285 394.642 208.931 392.785L208.856 392.394C208.621 391.158 208.645 390.012 208.928 388.956C209.218 387.891 209.734 387.005 210.474 386.299C211.22 385.584 212.089 385.132 213.079 384.944C214.698 384.635 216.058 384.928 217.159 385.824C218.261 386.719 219.001 388.161 219.38 390.148L219.549 391.035L211.111 392.644C211.376 393.866 211.922 394.792 212.75 395.421C213.584 396.041 214.531 396.251 215.59 396.049C216.342 395.905 216.949 395.63 217.413 395.224C217.876 394.817 218.255 394.324 218.55 393.743L220.044 394.507C219.306 396.31 217.893 397.411 215.806 397.809ZM213.412 386.693C212.553 386.857 211.891 387.309 211.428 388.05C210.963 388.783 210.769 389.726 210.846 390.881L217.086 389.691L217.055 389.53C216.787 388.46 216.336 387.679 215.701 387.187C215.065 386.688 214.302 386.524 213.412 386.693Z" fill="white"/>
<path d="M253.547 423.109C254.334 421.807 255.489 421.048 257.013 420.833C259.666 420.458 261.216 421.766 261.662 424.756L262.833 433.053L260.687 433.356L259.514 425.048C259.378 424.144 259.075 423.504 258.604 423.129C258.14 422.752 257.479 422.625 256.62 422.746C255.924 422.844 255.339 423.116 254.866 423.562C254.392 424.008 254.051 424.553 253.842 425.198L255.105 434.144L252.959 434.447L250.442 416.624L252.589 416.321L253.547 423.109ZM265.051 426.219C264.878 424.989 264.961 423.849 265.302 422.798C265.651 421.747 266.217 420.894 267 420.239C267.791 419.583 268.74 419.177 269.846 419.021C271.556 418.779 273.02 419.176 274.239 420.211C275.466 421.245 276.218 422.744 276.496 424.709L276.517 424.86C276.69 426.082 276.609 427.214 276.275 428.255C275.947 429.288 275.384 430.137 274.587 430.802C273.797 431.465 272.837 431.877 271.708 432.037C270.006 432.277 268.541 431.88 267.314 430.846C266.095 429.811 265.348 428.319 265.073 426.369L265.051 426.219ZM267.246 426.169C267.442 427.562 267.921 428.634 268.682 429.387C269.451 430.138 270.377 430.437 271.46 430.284C272.551 430.13 273.357 429.583 273.879 428.641C274.4 427.692 274.552 426.447 274.334 424.908C274.14 423.531 273.654 422.463 272.876 421.705C272.105 420.938 271.178 420.631 270.095 420.784C269.035 420.934 268.24 421.476 267.709 422.411C267.179 423.346 267.024 424.599 267.246 426.169ZM281.262 414.545L281.691 417.585L284.035 417.254L284.269 418.913L281.925 419.244L283.025 427.03C283.096 427.533 283.254 427.897 283.498 428.123C283.742 428.341 284.116 428.415 284.618 428.344C284.866 428.309 285.2 428.214 285.62 428.06L285.866 429.801C285.323 430.035 284.784 430.19 284.251 430.266C283.291 430.401 282.527 430.213 281.958 429.702C281.389 429.19 281.029 428.401 280.878 427.333L279.779 419.547L277.493 419.87L277.258 418.211L279.544 417.888L279.115 414.848L281.262 414.545ZM302.011 424.125C301.929 423.544 301.645 423.127 301.159 422.872C300.68 422.608 299.879 422.437 298.756 422.359C297.64 422.28 296.738 422.123 296.05 421.889C295.37 421.654 294.843 421.334 294.471 420.929C294.105 420.523 293.879 420.01 293.792 419.391C293.647 418.362 293.957 417.431 294.723 416.597C295.496 415.762 296.56 415.249 297.914 415.058C299.337 414.857 300.542 415.061 301.527 415.672C302.521 416.281 303.098 417.158 303.26 418.303L301.102 418.608C301.019 418.02 300.696 417.549 300.133 417.194C299.578 416.838 298.921 416.714 298.163 416.821C297.382 416.932 296.795 417.188 296.402 417.591C296.009 417.993 295.851 418.469 295.929 419.018C296.002 419.537 296.262 419.899 296.709 420.104C297.156 420.309 297.931 420.456 299.032 420.545C300.141 420.633 301.052 420.796 301.764 421.035C302.476 421.274 303.024 421.607 303.408 422.034C303.799 422.452 304.041 422.998 304.136 423.671C304.295 424.792 303.973 425.757 303.172 426.564C302.37 427.364 301.253 427.865 299.822 428.067C298.816 428.209 297.901 428.157 297.078 427.91C296.254 427.663 295.577 427.254 295.046 426.682C294.522 426.101 294.208 425.439 294.103 424.697L296.25 424.394C296.39 425.108 296.757 425.64 297.351 425.99C297.951 426.331 298.693 426.439 299.574 426.315C300.387 426.2 301.014 425.946 301.455 425.552C301.903 425.15 302.088 424.674 302.011 424.125ZM310.583 420.382L309.435 421.976L310.058 426.385L307.911 426.688L305.395 408.865L307.541 408.562L309.063 419.342L310.017 417.799L313.344 413.116L315.955 412.747L311.811 418.681L318.296 425.222L315.778 425.577L310.583 420.382ZM322.752 424.593L320.605 424.896L318.832 412.341L320.979 412.038L322.752 424.593ZM318.188 409.035C318.139 408.687 318.202 408.378 318.377 408.109C318.56 407.838 318.86 407.674 319.278 407.615C319.695 407.556 320.029 407.631 320.28 407.84C320.53 408.049 320.68 408.328 320.729 408.676C320.778 409.024 320.711 409.33 320.527 409.592C320.343 409.855 320.043 410.016 319.625 410.075C319.207 410.134 318.874 410.062 318.624 409.861C318.383 409.658 318.237 409.383 318.188 409.035ZM329.006 423.71L326.859 424.013L324.342 406.19L326.489 405.886L329.006 423.71ZM335.26 422.827L333.113 423.13L330.596 405.307L332.743 405.003L335.26 422.827ZM346.021 417.91C345.939 417.33 345.656 416.913 345.17 416.658C344.691 416.394 343.889 416.223 342.766 416.145C341.65 416.066 340.748 415.909 340.06 415.675C339.38 415.44 338.854 415.12 338.481 414.715C338.116 414.308 337.89 413.796 337.802 413.177C337.657 412.148 337.967 411.217 338.733 410.383C339.507 409.548 340.571 409.035 341.924 408.843C343.348 408.642 344.552 408.847 345.538 409.458C346.531 410.067 347.109 410.944 347.27 412.089L345.112 412.394C345.029 411.806 344.706 411.334 344.143 410.98C343.588 410.624 342.931 410.5 342.173 410.607C341.392 410.717 340.805 410.974 340.412 411.377C340.019 411.779 339.861 412.255 339.939 412.804C340.012 413.323 340.272 413.684 340.72 413.89C341.167 414.095 341.941 414.242 343.042 414.331C344.151 414.419 345.062 414.582 345.774 414.821C346.487 415.06 347.035 415.392 347.418 415.82C347.809 416.238 348.052 416.784 348.147 417.457C348.305 418.578 347.984 419.543 347.182 420.35C346.38 421.15 345.263 421.651 343.832 421.853C342.827 421.995 341.912 421.943 341.088 421.696C340.264 421.449 339.587 421.04 339.056 420.468C338.533 419.887 338.218 419.225 338.113 418.483L340.26 418.18C340.4 418.893 340.767 419.426 341.361 419.776C341.962 420.117 342.703 420.225 343.585 420.101C344.397 419.986 345.024 419.732 345.465 419.338C345.914 418.936 346.099 418.46 346.021 417.91Z" fill="white"/>
<g clip-path="url(#clip0_295_520)">
<path d="M202.91 320.643C202.128 318.555 199.805 317.497 197.713 318.278C195.625 319.061 194.567 321.386 195.348 323.475L199.609 334.849L162.631 292.197C160.553 289.801 156.638 290.633 155.718 293.668L140.298 344.43L120.276 292.756C119.15 289.847 115.268 289.26 113.336 291.724L84.6094 328.348L88.8703 285.856C89.1596 282.973 86.3975 280.725 83.6228 281.608L54.5732 290.902L72.6345 265.915C73.542 264.658 73.6503 262.991 72.9113 261.627L68.5131 253.505C67.4494 251.545 65.0016 250.814 63.0387 251.878C61.08 252.939 60.3515 255.389 61.4131 257.35L64.604 263.241L40.8394 296.122C38.5643 299.267 41.6366 303.514 45.3396 302.331L80.2237 291.172L75.1885 341.377C74.7868 345.383 79.8948 347.442 82.3822 344.27L115.31 302.29L136.997 358.258C138.375 361.819 143.51 361.64 144.624 357.972L161.319 303.01L208.212 357.1C211.145 360.481 216.617 357.238 215.043 353.039L202.91 320.643Z" fill="#FF490C"/>
<path d="M80.3484 223.675L45.7058 213.977C42.2733 213.02 39.3759 216.663 41.0681 219.787L53.7217 243.15C54.7832 245.111 57.2332 245.839 59.1961 244.778C61.1548 243.716 61.8833 241.266 60.8217 239.305L52.7059 224.32L83.7642 233.017C86.4722 233.777 89.1095 231.593 88.8764 228.794L84.7862 179.641L112.98 230.461C114.508 233.213 118.467 233.234 120.022 230.496L141.118 193.373L153.091 229.764C153.955 232.39 157.156 233.396 159.365 231.718L213.665 190.504L193.033 237.519C191.909 240.086 193.681 242.998 196.48 243.171L222.487 244.784L194.848 259.352C192.278 260.709 191.947 264.256 194.201 266.069L221.39 287.952L186.487 282.713C183.437 282.261 181.031 285.248 182.107 288.121L189.684 308.353C190.292 309.975 191.83 310.974 193.466 310.974C196.272 310.974 198.237 308.164 197.244 305.52L192.076 291.716L234.942 298.15C238.999 298.757 241.272 293.587 238.071 291.012L204.049 263.63L238.981 245.217C242.577 243.323 241.41 237.869 237.349 237.617L202.752 235.471L227.305 179.51C228.971 175.713 224.472 172.162 221.169 174.672L158.992 221.866L145.941 182.201C145.444 180.686 144.097 179.605 142.509 179.447C140.916 179.285 139.386 180.08 138.597 181.468L116.552 220.259L82.7359 159.304C80.6356 155.52 74.822 157.279 75.1821 161.596L80.3484 223.675Z" fill="#FF490C"/>
<path d="M171.486 189.428C178.413 195.367 189.087 192.846 192.663 184.499L226.196 106.257C228.082 101.857 222.023 98.418 219.215 102.3L169.335 171.284C165.199 177.004 166.19 184.888 171.486 189.428ZM175.878 176.015L204.453 136.495L185.242 181.318C183.825 184.624 179.56 185.715 176.741 183.298C174.627 181.485 174.208 178.323 175.878 176.015Z" fill="#FF490C"/>
<path d="M114.681 173.432C121.916 173.432 127.478 166.898 126.227 159.696L114.438 91.3305C113.626 86.6138 106.669 87.028 106.428 91.8113C102.731 165.128 102.918 161.236 102.918 161.694C102.918 168.076 108.116 173.432 114.681 173.432ZM112.662 128.533C118.644 163.228 118.328 161.215 118.328 161.715C118.328 163.803 116.44 165.626 114.173 165.324C112.36 165.081 110.993 163.522 110.993 161.696C110.993 161.546 112.654 128.681 112.662 128.533Z" fill="#FF490C"/>
<path d="M60.6804 205.937C71.9622 205.937 76.8059 191.337 67.5349 184.668L11.2278 144.141C7.34372 141.345 2.66864 146.511 5.84919 150.098L51.8965 201.988C54.1237 204.496 57.325 205.937 60.6804 205.937ZM62.8182 191.22C64.8372 192.673 64.8497 195.65 62.8764 197.128C61.3153 198.299 59.1713 198.021 57.9349 196.628L36.0228 171.935L62.8182 191.22Z" fill="#FF490C"/>
<path d="M41.0933 133.387C41.8905 134.285 42.9979 134.743 44.1115 134.743C47.5668 134.743 49.4485 130.634 47.1276 128.023L27.3532 105.78C25.8712 104.113 23.3213 103.963 21.654 105.445C19.9867 106.927 19.8369 109.479 21.3189 111.144L41.0933 133.387Z" fill="#FF490C"/>
<path d="M153.524 137.261C155.214 137.261 156.79 136.191 157.354 134.501L163.274 116.737C163.98 114.621 162.837 112.335 160.722 111.629C158.605 110.926 156.32 112.069 155.614 114.183L149.694 131.947C148.822 134.559 150.77 137.261 153.524 137.261Z" fill="#FF490C"/>
<path d="M226.269 212.914C227.174 214.952 229.562 215.87 231.597 214.964L265.509 199.892C267.547 198.986 268.465 196.601 267.56 194.563C266.654 192.525 264.269 191.607 262.231 192.513L228.319 207.585C226.281 208.491 225.363 210.876 226.269 212.914Z" fill="#FF490C"/>
<path d="M44.1156 263.068C46.118 263.068 47.8561 261.578 48.1142 259.538C48.3952 257.327 46.8299 255.306 44.6193 255.025L11.9271 250.868C9.72274 250.595 7.69327 252.152 7.41226 254.365C7.13126 256.576 8.69656 258.597 10.9092 258.88C45.8266 263.318 43.7118 263.068 44.1156 263.068Z" fill="#FF490C"/>
<path d="M57.683 308.828L40.2349 326.452C38.5863 327.955 38.4677 330.507 39.9685 332.155C41.4692 333.804 44.0232 333.925 45.6718 332.422L63.1198 314.798C64.7684 313.297 64.887 310.743 63.3863 309.094C61.8855 307.446 59.3294 307.327 57.683 308.828Z" fill="#FF490C"/>
<path d="M259.725 338.229L217.2 308.503C215.372 307.227 212.856 307.673 211.577 309.5C210.302 311.328 210.747 313.844 212.575 315.122C258.63 347.315 255.597 345.575 257.408 345.575C261.33 345.575 262.964 340.492 259.725 338.229Z" fill="#FF490C"/>
<path d="M263.872 261.047H236.15C233.919 261.047 232.112 262.853 232.112 265.083C232.112 267.314 233.919 269.121 236.15 269.121H263.872C266.101 269.121 267.908 267.314 267.908 265.083C267.908 262.853 266.101 261.047 263.872 261.047Z" fill="#FF490C"/>
</g>
<g clip-path="url(#clip1_295_520)">
<path d="M46.0941 349.981C62.5094 366.396 72.4396 356.82 75.3528 349.981C93.972 372.02 105.372 349.981 111.831 349.981C117.151 346.561 120.191 339.721 122.851 332.881C125.511 326.042 124.371 323.762 122.851 314.262C128.171 304.003 122.851 297.923 120.191 291.463C123.611 284.244 114.871 275.504 111.831 270.184C112.439 264.408 105.245 257.898 101.572 255.365C87.8923 243.205 87.5123 252.325 75.3528 255.365C57.1136 240.165 57.1136 254.985 48.754 259.165C39.6344 259.165 43.8142 270.944 40.7743 273.224C35.4546 270.944 31.6547 288.043 31.6547 293.743C22.1551 296.403 31.6547 309.322 31.6547 314.262C17.2153 320.342 32.0347 329.842 31.6547 332.881C31.2747 335.921 38.4944 349.981 46.0941 349.981Z" fill="#242424"/>
<path d="M87.2451 265.485C86.0161 265.485 85.0187 266.482 85.0187 267.711C85.0187 268.94 86.0161 269.938 87.2451 269.938C88.4742 269.938 89.4716 268.94 89.4716 267.711C89.4716 266.482 88.4742 265.485 87.2451 265.485Z" fill="#DADADA"/>
<path d="M64.9805 265.485C63.7515 265.485 62.754 266.482 62.754 267.711C62.754 268.94 63.7515 269.938 64.9805 269.938C66.2095 269.938 67.207 268.94 67.207 267.711C67.207 266.482 66.2095 265.485 64.9805 265.485Z" fill="#DADADA"/>
<path d="M124.455 313.55C126.366 310.682 127.322 307.103 127.322 304.003C127.322 299.328 125.245 294.985 121.682 292.04C122.47 290.155 122.869 288.195 122.869 286.191C122.869 279.989 119.249 274.212 113.868 271.514C114.685 264.742 110.272 258.536 103.733 256.952C101.174 251.036 95.4776 247.005 89.4717 247.005C83.881 247.005 78.8668 250.266 76.1129 255.024C73.3588 250.266 68.3445 247.005 62.7541 247.005C56.7478 247.005 51.0513 251.036 48.4925 256.953C41.9144 258.546 37.5434 264.784 38.3576 271.514C32.9767 274.212 29.3571 279.989 29.3571 286.191C29.3571 288.195 29.7556 290.155 30.5443 292.04C26.9808 294.985 24.9042 299.328 24.9042 304.003C24.9042 307.12 25.8682 310.694 27.7712 313.55C25.9117 316.175 24.9042 319.286 24.9042 322.482C24.9042 326.627 26.5847 330.576 29.5573 333.507C28.029 342.745 35.3964 352.094 44.9424 352.094C45.0114 352.094 45.0793 352.093 45.1459 352.091C48.3108 357.551 54.1855 361 60.5276 361C67.1376 361 73.0439 357.033 76.1129 351.316C79.1819 357.033 85.0882 361 91.6982 361C98.0402 361 103.915 357.551 107.08 352.091C107.147 352.093 107.214 352.094 107.283 352.094C115.732 352.094 122.869 344.651 122.869 335.841C122.869 335.091 122.803 334.32 122.669 333.507C125.641 330.576 127.322 326.627 127.322 322.482C127.322 319.286 126.314 316.175 124.455 313.55ZM73.8864 280.71C72.5755 279.949 71.055 279.512 69.4335 279.512C68.2038 279.512 67.207 280.508 67.207 281.738C67.207 282.968 68.2038 283.964 69.4335 283.964C71.8888 283.964 73.8864 285.962 73.8864 288.417V330.758C70.62 327.053 65.8438 324.709 60.5276 324.709C59.298 324.709 58.3012 325.706 58.3012 326.935C58.3012 328.165 59.298 329.162 60.5276 329.162C67.8937 329.162 73.8864 335.154 73.8864 342.521C73.8864 350.124 67.7688 356.547 60.5276 356.547C55.3729 356.547 50.6277 353.499 48.4381 348.781C48.0345 347.912 47.1203 347.399 46.1671 347.506C46.0097 347.524 45.8532 347.545 45.6967 347.567C39.3602 348.433 32.2244 341.258 34.156 333.231C34.3544 332.407 34.0672 331.542 33.4155 330.999C30.8364 328.853 29.3571 325.749 29.3571 322.482C29.3571 320.463 29.9282 318.486 30.9909 316.753C33.6613 318.942 36.983 320.256 40.4894 320.256C41.7191 320.256 42.7159 319.259 42.7159 318.029C42.7159 316.8 41.7191 315.803 40.4894 315.803C34.447 315.803 29.3571 310.288 29.3571 304.003C29.3571 300.19 31.3006 296.682 34.5563 294.62C35.5594 293.984 35.8873 292.674 35.3015 291.641C34.3119 289.896 33.81 288.062 33.81 286.191C33.81 280.182 38.7087 274.391 44.9424 274.391C50.8728 274.391 56.0747 279.905 56.0747 286.191C56.0747 287.421 57.0715 288.417 58.3012 288.417C59.5308 288.417 60.5276 287.421 60.5276 286.191C60.5276 277.381 53.3905 269.938 44.9424 269.938C44.1969 269.938 43.4555 269.998 42.7215 270.112C42.7204 270.054 42.7159 269.997 42.7159 269.938C42.7159 264.969 46.7496 261.032 51.6218 261.032C54.0001 261.032 56.2372 261.958 57.9209 263.64C58.7908 264.509 60.2003 264.508 61.0696 263.639C61.9385 262.769 61.9379 261.359 61.068 260.49C59.0368 258.461 56.4677 257.167 53.6835 256.738C55.647 253.823 58.9121 251.458 62.7541 251.458C68.6845 251.458 73.8864 256.972 73.8864 263.258V280.71ZM111.736 320.256C115.243 320.256 118.565 318.942 121.235 316.754C122.298 318.487 122.869 320.463 122.869 322.482C122.869 325.749 121.389 328.853 118.811 330.999C118.159 331.542 117.872 332.407 118.07 333.231C118.306 334.212 118.416 335.041 118.416 335.841C118.416 342.752 112.165 348.337 106.529 347.567C106.373 347.545 106.216 347.524 106.059 347.506C105.104 347.398 104.191 347.912 103.788 348.781C101.598 353.499 96.8526 356.547 91.6982 356.547C84.457 356.547 78.3394 350.124 78.3394 342.521C78.3394 335.154 84.3321 329.162 91.6982 329.162C92.9276 329.162 93.9246 328.165 93.9246 326.935C93.9246 325.706 92.9276 324.709 91.6982 324.709C86.382 324.709 81.6058 327.053 78.3394 330.758V288.417C78.3394 285.962 80.3369 283.964 82.7923 283.964C84.0217 283.964 85.0188 282.968 85.0188 281.738C85.0188 280.508 84.0217 279.512 82.7923 279.512C81.1708 279.512 79.6503 279.949 78.3394 280.71V263.258C78.3394 256.972 83.5413 251.458 89.4717 251.458C93.3137 251.458 96.5786 253.823 98.5421 256.738C95.7581 257.167 93.1892 258.461 91.1578 260.49C90.2877 261.359 90.2868 262.768 91.1558 263.638C92.0248 264.508 93.4348 264.509 94.3045 263.64C95.9888 261.958 98.2257 261.032 100.604 261.032C105.501 261.032 109.51 264.992 109.51 269.938C109.51 269.997 109.505 270.054 109.504 270.112C108.77 269.998 108.029 269.938 107.283 269.938C98.8353 269.938 91.6982 277.381 91.6982 286.191C91.6982 287.421 92.6952 288.417 93.9246 288.417C95.1541 288.417 96.1511 287.421 96.1511 286.191C96.1511 279.905 101.353 274.391 107.283 274.391C113.514 274.391 118.416 280.179 118.416 286.191C118.416 288.062 117.914 289.896 116.924 291.641C116.339 292.674 116.667 293.984 117.67 294.62C120.925 296.682 122.869 300.19 122.869 304.003C122.869 310.31 117.761 315.803 111.736 315.803C110.507 315.803 109.51 316.8 109.51 318.029C109.51 319.259 110.507 320.256 111.736 320.256Z" fill="#DADADA"/>
<path d="M68.8663 294.663C68.0465 293.747 66.6392 293.668 65.7226 294.488C58.5827 300.875 47.1688 295.771 47.1688 286.191C47.1688 284.961 46.172 283.964 44.9423 283.964C43.7126 283.964 42.7158 284.961 42.7158 286.191C42.7158 293.92 48.3726 300.35 55.7629 301.566C54.9057 304.266 52.3756 306.229 49.3952 306.229C48.1655 306.229 47.1688 307.226 47.1688 308.456C47.1688 309.685 48.1655 310.682 49.3952 310.682C54.8182 310.682 59.3453 306.783 60.3276 301.642C63.424 301.237 66.3382 299.912 68.6913 297.807C69.6077 296.987 69.6861 295.58 68.8663 294.663Z" fill="#DADADA"/>
<path d="M44.9423 333.615C43.7126 333.615 42.7158 334.611 42.7158 335.841C42.7158 337.071 43.7126 338.068 44.9423 338.068C50.8727 338.068 56.0746 343.582 56.0746 349.868C56.0746 351.098 57.0714 352.094 58.3011 352.094C59.5308 352.094 60.5275 351.098 60.5275 349.868C60.5275 341.058 53.3904 333.615 44.9423 333.615Z" fill="#DADADA"/>
<path d="M62.7541 315.803C55.2095 315.803 48.7318 319.941 45.3209 325.957C44.7146 327.027 45.0902 328.386 46.1598 328.992C47.2296 329.599 48.5882 329.223 49.1947 328.153C51.852 323.465 56.894 320.256 62.7541 320.256C63.9838 320.256 64.9806 319.259 64.9806 318.029C64.9806 316.8 63.9838 315.803 62.7541 315.803Z" fill="#DADADA"/>
<path d="M102.83 306.229C99.8501 306.229 97.32 304.266 96.4628 301.566C103.853 300.35 109.51 293.92 109.51 286.191C109.51 284.961 108.513 283.964 107.283 283.964C106.054 283.964 105.057 284.961 105.057 286.191C105.057 292.329 100.063 297.323 93.9246 297.323C91.1825 297.323 88.547 296.316 86.5031 294.488C85.5869 293.668 84.1791 293.747 83.3594 294.663C82.5394 295.58 82.618 296.987 83.5344 297.807C85.8875 299.912 88.802 301.237 91.8981 301.642C92.8804 306.783 97.4075 310.682 102.83 310.682C104.06 310.682 105.057 309.685 105.057 308.456C105.057 307.226 104.06 306.229 102.83 306.229Z" fill="#DADADA"/>
<path d="M107.284 333.615C98.8354 333.615 91.6982 341.058 91.6982 349.868C91.6982 351.098 92.6953 352.094 93.9247 352.094C95.1542 352.094 96.1512 351.098 96.1512 349.868C96.1512 343.582 101.353 338.068 107.284 338.068C108.513 338.068 109.51 337.071 109.51 335.841C109.51 334.611 108.513 333.615 107.284 333.615Z" fill="#DADADA"/>
<path d="M106.905 325.958C103.502 319.955 97.0337 315.803 89.4717 315.803C88.2423 315.803 87.2452 316.8 87.2452 318.029C87.2452 319.259 88.2423 320.256 89.4717 320.256C95.3275 320.256 100.373 323.464 103.031 328.153C103.638 329.225 104.998 329.598 106.066 328.993C107.135 328.386 107.511 327.027 106.905 325.958Z" fill="#DADADA"/>
</g>
<defs>
<clipPath id="clip0_295_520">
<rect width="272.828" height="272.828" fill="white" transform="translate(0 88.0001)"/>
</clipPath>
<clipPath id="clip1_295_520">
<rect width="113.995" height="113.995" fill="white" transform="translate(19.1154 247.005)"/>
</clipPath>
</defs>
</svg>
