<svg width="80" height="86" viewBox="0 0 80 86" fill="none" xmlns="http://www.w3.org/2000/svg">
<path d="M31.3667 90.9317L20.2822 87.0922C19.7683 86.9142 19.7222 86.2053 20.2088 85.9623L36.8103 77.6721M31.3667 90.9317L26.9452 86.5753C26.6846 86.3185 26.7049 85.8922 26.9887 85.6613L36.8103 77.6721M31.3667 90.9317C51.6549 99.3498 111.785 88.4618 105.006 67.8123C104.959 67.6692 104.855 67.5425 104.724 67.4695L96.8918 63.13C96.4911 62.908 96.4657 62.3412 96.845 62.0843L111.16 52.3857C111.67 52.0403 111.411 51.2433 110.796 51.2633L90.0018 51.9395C89.5805 51.9532 89.2709 51.5482 89.3946 51.1453L93.9411 36.345C94.1572 35.6413 93.1781 35.2222 92.8181 35.8643L90.5 40M36.8103 77.6721L15.0877 56.914C14.6149 56.4623 15.0817 55.6828 15.7032 55.8862L47.8454 66.4098M36.8103 77.6721L25.5953 63.1127C25.2493 62.6635 25.6447 62.0254 26.2009 62.1353L47.8454 66.4098M47.8454 66.4098L43.262 43.6931C43.1576 43.1756 43.7113 42.7762 44.1693 43.0386L62.4006 53.481M47.8454 66.4098L49.5677 51.6651C49.6092 51.3101 49.9438 51.0653 50.2947 51.1334L62.4006 53.481M62.4006 53.481L70.026 14.7285C70.1283 14.2084 70.7972 14.0535 71.1178 14.4757L90.5 40M62.4006 53.481L71.0507 29.1535L90.5 40" stroke="#FF490C" stroke-width="1.84266" stroke-linecap="round" stroke-linejoin="round"/>
<path d="M56.6953 38.7374L51.8643 25.5101" stroke="#FF490C" stroke-width="1.84266" stroke-linecap="round" stroke-linejoin="round"/>
<path d="M34.103 50.9283L17.6573 35.3179" stroke="#FF490C" stroke-width="1.84266" stroke-linecap="round" stroke-linejoin="round"/>
<path d="M29.6222 69.8489L15.8623 56.5371L34.2251 62.7264L25.0822 62.1975L29.6222 69.8489Z" fill="#FF490C"/>
<path d="M47.506 62.2052L43.308 43.1255L60.4959 52.0941L49.9548 50.8601L47.506 62.2052Z" fill="#FF490C"/>
<path d="M65.5257 42.1852L70.5 15L87.5 34.5L80.5 46L65.5257 42.1852Z" fill="#FF490C"/>
<path d="M37 78L21 86.5C46.2 106.5 112.5 86 105.5 67L97.5 62L111.5 51L90 52L95 32L81 43.5L71.5 27L63.5 52.5L49.5 50L47.5 65L23 61L37 78Z" fill="#FF490C"/>
</svg>
