<svg width="312" height="301" viewBox="0 0 312 301" fill="none" xmlns="http://www.w3.org/2000/svg">
<path d="M64.8971 136.343L11.3746 108.304C9.80581 107.482 8.02174 108.954 8.53096 110.651L16.969 138.759C17.5818 140.8 20.5366 140.595 20.8612 138.488L22.5916 127.259C22.7731 126.082 23.9374 125.323 25.0879 125.632L64.8971 136.343ZM64.8971 136.343L78.3176 39.4335C78.6097 37.3243 81.5572 37.0715 82.2041 39.1002L115.661 144.022M64.8971 136.343L81.9715 78.9891C82.4983 77.2197 84.9365 77.0479 85.7062 78.7258L115.661 144.022M115.661 144.022L166.91 88.6351C168.077 87.3736 170.187 88.0747 170.367 89.784L177.532 157.82M115.661 144.022L157.875 120.475C158.892 119.908 160.176 120.325 160.664 121.382L177.532 157.82M177.532 157.82L291.769 105.318C293.62 104.467 295.409 106.605 294.246 108.277L240.144 186.071M177.532 157.82L258.25 134.306L240.144 186.071M240.144 186.071L294.268 200.72C296.175 201.236 296.259 203.91 294.388 204.545L235.134 224.646C233.834 225.087 233.355 226.676 234.193 227.762L275.6 281.379C276.825 282.966 275.213 285.168 273.33 284.48L220.446 265.161C219.045 264.649 217.596 265.796 217.774 267.277L221.329 296.981" stroke="#FF490C" stroke-width="6" stroke-linecap="round" stroke-linejoin="round"/>
<path d="M205.591 114.663L231.312 76.7033" stroke="#FF490C" stroke-width="6" stroke-linecap="round" stroke-linejoin="round"/>
<path d="M130.354 78.2373L140.237 5.06917" stroke="#FF490C" stroke-width="6" stroke-linecap="round" stroke-linejoin="round"/>
<path d="M17.9637 136.866L11.0308 109.573L44.7969 128.914L24.9891 123.632L17.9637 136.866Z" fill="#FF490C"/>
<path d="M71.8574 102.457L80.7887 40.7607L99.4344 101.04L83.4103 75.8908L71.8574 102.457Z" fill="#FF490C"/>
<path d="M126.116 135.115L168.496 87.6753L177.565 150.148L160.738 119.963L126.116 135.115Z" fill="#FF490C"/>
<path d="M213.313 144.548L290.066 109.375L247.244 172.403L258.171 136.305L213.313 144.548Z" fill="#FF490C"/>
</svg>
