<svg width="65" height="65" viewBox="0 0 65 65" fill="none" xmlns="http://www.w3.org/2000/svg">
<g opacity="0.4">
<path d="M48 34V25C48 23.067 46.433 21.5 44.5 21.5V21.5C42.567 21.5 41 23.067 41 25V34" stroke="white" stroke-width="2"/>
<path d="M41 33.5V23.7037C41 21.7707 39.433 20.2037 37.5 20.2037V20.2037C35.567 20.2037 34 21.7707 34 23.7037V34" stroke="white" stroke-width="2" stroke-linecap="round"/>
<path d="M34 34V14C34 11.7909 32.2091 10 30 10V10C27.7909 10 26 11.7909 26 14V40" stroke="white" stroke-width="2" stroke-linecap="round"/>
<path d="M26 39.5L25.6191 35.2138C25.2941 31.557 21.4682 29.3052 18.1134 30.7962V30.7962C17.9797 30.8556 17.9147 31.01 17.9616 31.1486C23.4651 47.4005 16.116 61 39 61C57 61 55 47 55 33V28C55 26.067 53.433 24.5 51.5 24.5V24.5C49.567 24.5 48 26.067 48 28V34" stroke="white" stroke-width="2" stroke-linecap="round"/>
<path d="M21 13C21.1667 10.3333 24 5 30 5C36 5 38.8333 10.3333 39 13" stroke="white" stroke-width="2" stroke-linecap="round"/>
<path fill-rule="evenodd" clip-rule="evenodd" d="M45.7071 3.29289C45.3166 2.90237 44.6834 2.90237 44.2929 3.29289C43.9024 3.68342 43.9024 4.31658 44.2929 4.70711L47.5858 7.99999L38 8C37.4477 8 37 8.44772 37 9C37 9.55229 37.4477 10 38 10L47.5858 9.99999L44.2929 13.2929C43.9024 13.6834 43.9024 14.3166 44.2929 14.7071C44.6834 15.0976 45.3166 15.0976 45.7071 14.7071L50.7071 9.70711C51.0976 9.31658 51.0976 8.68342 50.7071 8.29289L45.7071 3.29289Z" fill="white"/>
<path fill-rule="evenodd" clip-rule="evenodd" d="M14.2929 3.29289C14.6834 2.90237 15.3166 2.90237 15.7071 3.29289C16.0976 3.68342 16.0976 4.31658 15.7071 4.70711L12.4142 7.99999L22 8C22.5523 8 23 8.44772 23 9C23 9.55229 22.5523 10 22 10L12.4142 9.99999L15.7071 13.2929C16.0976 13.6834 16.0976 14.3166 15.7071 14.7071C15.3166 15.0976 14.6834 15.0976 14.2929 14.7071L9.29289 9.70711C8.90237 9.31658 8.90237 8.68342 9.29289 8.29289L14.2929 3.29289Z" fill="white"/>
</g>
</svg>
