<svg width="493" height="34" viewBox="0 0 493 34" fill="none" xmlns="http://www.w3.org/2000/svg">
<path d="M26.0012 22.7128L26.3506 22.7381L26.3778 22.3625H26.0012V22.7128ZM22.3105 30.5608L22.0821 30.2951L22.0813 30.2959L22.3105 30.5608ZM4.21783 29.4366L3.95045 29.663L3.95175 29.6645L4.21783 29.4366ZM2.39371 8.71376L2.07575 8.56671L2.39371 8.71376ZM6.86916 3.51715L7.05386 3.81482L7.05445 3.81446L6.86916 3.51715ZM22.2681 4.55647L22.0372 4.8199L22.2681 4.55647ZM26.0436 12.5953V12.9456H26.4301L26.3923 12.561L26.0436 12.5953ZM19.6804 12.5953L19.3312 12.6226L19.3564 12.9456H19.6804V12.5953ZM18.0048 8.26834L17.7628 8.52169L17.7667 8.52532L18.0048 8.26834ZM8.88418 9.20161L8.59644 9.00179L8.59605 9.00234L8.88418 9.20161ZM7.27217 16.2648L6.92185 16.2617V16.2648H7.27217ZM8.77813 25.9156L8.48458 26.1068L8.48582 26.1087L8.77813 25.9156ZM17.9624 26.8913L18.2004 27.1483L18.2006 27.1482L17.9624 26.8913ZM19.638 22.7128V22.3625H19.313L19.2887 22.6866L19.638 22.7128ZM25.6518 22.6875C25.4171 25.9315 24.2215 28.4556 22.0821 30.2951L22.5389 30.8264C24.8397 28.8481 26.1045 26.1402 26.3506 22.7381L25.6518 22.6875ZM22.0813 30.2959C19.9533 32.1374 17.1285 33.0739 13.5717 33.0739V33.7745C17.2549 33.7745 20.2559 32.8021 22.5398 30.8257L22.0813 30.2959ZM13.5717 33.0739C9.69972 33.0739 6.68479 31.7787 4.48391 29.2087L3.95175 29.6645C6.3041 32.4113 9.52511 33.7745 13.5717 33.7745V33.0739ZM4.4852 29.2103C2.29171 26.6192 1.17444 23.0463 1.17444 18.4495H0.473801C0.473801 23.1571 1.619 26.9089 3.95045 29.663L4.4852 29.2103ZM1.17444 18.4495V16.5617H0.473801V18.4495H1.17444ZM1.17444 16.5617C1.17444 13.6334 1.69028 11.0692 2.71167 8.86082L2.07575 8.56671C1.00435 10.8832 0.473801 13.551 0.473801 16.5617H1.17444ZM2.71167 8.86082C3.73211 6.65445 5.18022 4.9773 7.05386 3.81482L6.68447 3.21947C4.68363 4.46087 3.14809 6.24813 2.07575 8.56671L2.71167 8.86082ZM7.05445 3.81446C8.94379 2.63704 11.1405 2.04334 13.6566 2.04334V1.34271C11.0256 1.34271 8.69731 1.96509 6.68388 3.21983L7.05445 3.81446ZM13.6566 2.04334C17.1554 2.04334 19.9373 2.97907 22.0372 4.8199L22.4991 4.29304C20.2437 2.31595 17.2846 1.34271 13.6566 1.34271V2.04334ZM22.0372 4.8199C24.1351 6.65899 25.3625 9.24938 25.695 12.6296L26.3923 12.561C26.046 9.04072 24.7564 6.27187 22.4991 4.29304L22.0372 4.8199ZM26.0436 12.245H19.6804V12.9456H26.0436V12.245ZM20.0297 12.5681C19.8708 10.5312 19.2958 8.98687 18.2429 8.01136L17.7667 8.52532C18.6369 9.33151 19.179 10.6718 19.3312 12.6226L20.0297 12.5681ZM18.2468 8.01502C17.2084 7.02314 15.6547 6.56054 13.6566 6.56054V7.26117C15.5612 7.26117 16.9063 7.70355 17.7628 8.52166L18.2468 8.01502ZM13.6566 6.56054C11.4395 6.56054 9.73244 7.36595 8.59644 9.00179L9.17192 9.40143C10.157 7.98293 11.6316 7.26117 13.6566 7.26117V6.56054ZM8.59605 9.00234C7.48992 10.6018 6.95036 13.0415 6.92186 16.2617L7.62247 16.2679C7.65054 13.0965 8.18565 10.8275 9.17231 9.40087L8.59605 9.00234ZM6.92185 16.2648V18.5979H7.62249V16.2648H6.92185ZM6.92185 18.5979C6.92185 21.9552 7.42408 24.4787 8.48459 26.1068L9.07166 25.7244C8.12422 24.2699 7.62249 21.9149 7.62249 18.5979H6.92185ZM8.48582 26.1087C9.58115 27.7669 11.3008 28.5779 13.5717 28.5779V27.8773C11.4874 27.8773 10.0113 27.147 9.07043 25.7225L8.48582 26.1087ZM13.5717 28.5779C15.5825 28.5779 17.1482 28.1231 18.2004 27.1483L17.7243 26.6343C16.8534 27.4412 15.4921 27.8773 13.5717 27.8773V28.5779ZM18.2006 27.1482C19.2638 26.162 19.8421 24.6712 19.9873 22.7391L19.2887 22.6866C19.1511 24.5158 18.6123 25.8107 17.7241 26.6345L18.2006 27.1482ZM19.638 23.0631H26.0012V22.3625H19.638V23.0631ZM35.7581 12.5529H35.4078V13.5205L36.0272 12.7772L35.7581 12.5529ZM49.4602 18.301H49.8106L49.8105 18.2967L49.4602 18.301ZM49.4602 33V33.3503H49.8105V33H49.4602ZM43.3303 33H42.98V33.3503H43.3303V33ZM42.4819 15.5648L42.2201 15.7976L42.2227 15.8005L42.4819 15.5648ZM35.7581 16.689L35.4553 16.5128L35.4078 16.5945V16.689H35.7581ZM35.7581 33V33.3503H36.1084V33H35.7581ZM29.6282 33H29.2779V33.3503H29.6282V33ZM29.6282 0.420384V0.070066H29.2779V0.420384H29.6282ZM35.7581 0.420384H36.1084V0.070066H35.7581V0.420384ZM36.0272 12.7772C37.5893 10.9027 39.5354 9.97614 41.888 9.97614V9.27551C39.3198 9.27551 37.1792 10.3004 35.489 12.3286L36.0272 12.7772ZM41.888 9.97614C44.3076 9.97614 46.0732 10.6765 47.2502 12.025C48.4357 13.3831 49.0751 15.4561 49.1099 18.3053L49.8105 18.2967C49.7746 15.3624 49.1167 13.0978 47.7781 11.5642C46.431 10.021 44.4459 9.27551 41.888 9.27551V9.97614ZM49.1099 18.301V33H49.8105V18.301H49.1099ZM49.4602 32.6497H43.3303V33.3503H49.4602V32.6497ZM43.6807 33V18.4707H42.98V33H43.6807ZM43.6807 18.4707C43.6807 17.1156 43.3908 16.0438 42.7411 15.3292L42.2227 15.8005C42.7043 16.3302 42.98 17.1957 42.98 18.4707H43.6807ZM42.7437 15.3321C42.0826 14.5883 41.0218 14.26 39.6609 14.26V14.9607C40.9301 14.9607 41.75 15.2687 42.2201 15.7976L42.7437 15.3321ZM39.6609 14.26C37.7584 14.26 36.3326 15.0045 35.4553 16.5128L36.0609 16.8651C36.7956 15.6019 37.9717 14.9607 39.6609 14.9607V14.26ZM35.4078 16.689V33H36.1084V16.689H35.4078ZM35.7581 32.6497H29.6282V33.3503H35.7581V32.6497ZM29.9786 33V0.420384H29.2779V33H29.9786ZM29.6282 0.770703H35.7581V0.070066H29.6282V0.770703ZM35.4078 0.420384V12.5529H36.1084V0.420384H35.4078ZM54.4447 15.2254L54.1304 15.0708L54.4447 15.2254ZM58.2202 11.0894L58.0423 10.7876L58.0411 10.7883L58.2202 11.0894ZM71.5406 12.4681L71.2965 12.7194L71.2974 12.7203L71.5406 12.4681ZM74.8282 20.1887L75.1784 20.1793L75.1782 20.1719L75.1777 20.1644L74.8282 20.1887ZM74.8706 21.7583H75.2211L75.2208 21.7489L74.8706 21.7583ZM71.9223 30.2426L72.1793 30.4807L72.1801 30.4799L71.9223 30.2426ZM56.078 30.2426L55.821 30.4807L55.8219 30.4816L56.078 30.2426ZM60.4898 26.7641L60.2038 26.9664L60.205 26.968L60.4898 26.7641ZM67.4893 26.7853L67.7712 26.9932L67.7725 26.9915L67.4893 26.7853ZM60.4898 16.3496L60.7758 16.5519L60.7769 16.5503L60.4898 16.3496ZM53.48 21.3129C53.48 19.0821 53.9093 17.1071 54.7591 15.3801L54.1304 15.0708C53.2268 16.9072 52.7794 18.9905 52.7794 21.3129H53.48ZM54.7591 15.3801C55.6071 13.6567 56.8198 12.33 58.3993 11.3904L58.0411 10.7883C56.3401 11.8001 55.0358 13.2308 54.1304 15.0708L54.7591 15.3801ZM58.3982 11.3911C59.9918 10.4513 61.8448 9.97614 63.9683 9.97614V9.27551C61.7367 9.27551 59.7575 9.77604 58.0423 10.7876L58.3982 11.3911ZM63.9683 9.97614C66.9876 9.97614 69.4197 10.897 71.2965 12.7194L71.7846 12.2167C69.7586 10.2495 67.1426 9.27551 63.9683 9.27551V9.97614ZM71.2974 12.7203C73.1888 14.5436 74.2573 17.0295 74.4787 20.2131L75.1777 20.1644C74.9466 16.8433 73.8233 14.1821 71.7837 12.2158L71.2974 12.7203ZM74.478 20.1982L74.5204 21.7678L75.2208 21.7489L75.1784 20.1793L74.478 20.1982ZM74.5203 21.7583C74.5203 25.2112 73.5584 27.948 71.6646 30.0054L72.1801 30.4799C74.2173 28.2668 75.2209 25.3475 75.2209 21.7583H74.5203ZM71.6654 30.0045C69.776 32.0434 67.2376 33.0739 64.0108 33.0739V33.7745C67.4017 33.7745 70.1376 32.6839 72.1793 30.4807L71.6654 30.0045ZM64.0108 33.0739C60.784 33.0739 58.2379 32.0434 56.3341 30.0036L55.8219 30.4816C57.8774 32.684 60.6198 33.7745 64.0108 33.7745V33.0739ZM56.3349 30.0045C54.444 27.9639 53.48 25.1726 53.48 21.5886H52.7794C52.7794 25.3011 53.7809 28.2792 55.821 30.4807L56.3349 30.0045ZM53.48 21.5886V21.3129H52.7794V21.5886H53.48ZM58.9092 21.7583C58.9092 23.9723 59.3249 25.7238 60.2038 26.9664L60.7758 26.5618C60.0144 25.4853 59.6099 23.8997 59.6099 21.7583H58.9092ZM60.205 26.968C61.0971 28.2139 62.3817 28.8324 64.0108 28.8324V28.1318C62.5855 28.1318 61.5228 27.6049 60.7746 26.5601L60.205 26.968ZM64.0108 28.8324C65.5994 28.8324 66.8667 28.2197 67.7712 26.9932L67.2074 26.5773C66.4434 27.6133 65.3916 28.1318 64.0108 28.1318V28.8324ZM67.7725 26.9915C68.6728 25.7555 69.0911 23.8397 69.0911 21.3129H68.3904C68.3904 23.7919 67.9744 25.5243 67.2061 26.579L67.7725 26.9915ZM69.0911 21.3129C69.0911 19.1383 68.6672 17.4019 67.7748 16.1466L67.2038 16.5526C67.98 17.6446 68.3904 19.2171 68.3904 21.3129H69.0911ZM67.7748 16.1466C66.871 14.8751 65.588 14.2388 63.9683 14.2388V14.9394C65.3747 14.9394 66.439 15.4768 67.2038 16.5526L67.7748 16.1466ZM63.9683 14.2388C62.3614 14.2388 61.0919 14.8764 60.2026 16.1489L60.7769 16.5503C61.528 15.4755 62.5775 14.9394 63.9683 14.9394V14.2388ZM60.2038 16.1473C59.3211 17.3952 58.9092 19.2862 58.9092 21.7583H59.6099C59.6099 19.3378 60.0181 17.6231 60.7758 16.5519L60.2038 16.1473ZM79.0067 15.2254L78.6924 15.0708L79.0067 15.2254ZM82.7822 11.0894L82.6043 10.7876L82.6031 10.7883L82.7822 11.0894ZM96.1025 12.4681L95.8585 12.7194L95.8594 12.7203L96.1025 12.4681ZM99.3902 20.1887L99.7404 20.1793L99.7402 20.1719L99.7397 20.1644L99.3902 20.1887ZM99.4326 21.7583H99.7831L99.7828 21.7489L99.4326 21.7583ZM96.4843 30.2426L96.7413 30.4807L96.7421 30.4799L96.4843 30.2426ZM80.6399 30.2426L80.383 30.4807L80.3838 30.4816L80.6399 30.2426ZM85.0518 26.7641L84.7658 26.9664L84.7669 26.968L85.0518 26.7641ZM92.0513 26.7853L92.3332 26.9932L92.3344 26.9915L92.0513 26.7853ZM85.0518 16.3496L85.3378 16.5519L85.3389 16.5503L85.0518 16.3496ZM78.042 21.3129C78.042 19.0821 78.4713 17.1071 79.321 15.3801L78.6924 15.0708C77.7888 16.9072 77.3413 18.9905 77.3413 21.3129H78.042ZM79.321 15.3801C80.1691 13.6567 81.3818 12.33 82.9613 11.3904L82.6031 10.7883C80.9021 11.8001 79.5978 13.2308 78.6924 15.0708L79.321 15.3801ZM82.9602 11.3911C84.5538 10.4513 86.4067 9.97614 88.5303 9.97614V9.27551C86.2986 9.27551 84.3195 9.77604 82.6043 10.7876L82.9602 11.3911ZM88.5303 9.97614C91.5496 9.97614 93.9817 10.897 95.8585 12.7194L96.3466 12.2167C94.3206 10.2495 91.7045 9.27551 88.5303 9.27551V9.97614ZM95.8594 12.7203C97.7508 14.5436 98.8193 17.0295 99.0407 20.2131L99.7397 20.1644C99.5086 16.8433 98.3853 14.1821 96.3457 12.2158L95.8594 12.7203ZM99.04 20.1982L99.0824 21.7678L99.7828 21.7489L99.7404 20.1793L99.04 20.1982ZM99.0823 21.7583C99.0823 25.2112 98.1204 27.948 96.2266 30.0054L96.7421 30.4799C98.7793 28.2668 99.7829 25.3475 99.7829 21.7583H99.0823ZM96.2274 30.0045C94.338 32.0434 91.7995 33.0739 88.5727 33.0739V33.7745C91.9637 33.7745 94.6996 32.6839 96.7413 30.4807L96.2274 30.0045ZM88.5727 33.0739C85.346 33.0739 82.7999 32.0434 80.896 30.0036L80.3838 30.4816C82.4393 32.684 85.1818 33.7745 88.5727 33.7745V33.0739ZM80.8969 30.0045C79.0059 27.9639 78.042 25.1726 78.042 21.5886H77.3413C77.3413 25.3011 78.3429 28.2792 80.383 30.4807L80.8969 30.0045ZM78.042 21.5886V21.3129H77.3413V21.5886H78.042ZM83.4712 21.7583C83.4712 23.9723 83.8869 25.7238 84.7658 26.9664L85.3378 26.5618C84.5764 25.4853 84.1719 23.8997 84.1719 21.7583H83.4712ZM84.7669 26.968C85.6591 28.2139 86.9437 28.8324 88.5727 28.8324V28.1318C87.1475 28.1318 86.0847 27.6049 85.3366 26.5601L84.7669 26.968ZM88.5727 28.8324C90.1614 28.8324 91.4287 28.2197 92.3332 26.9932L91.7693 26.5773C91.0053 27.6133 89.9536 28.1318 88.5727 28.1318V28.8324ZM92.3344 26.9915C93.2348 25.7555 93.653 23.8397 93.653 21.3129H92.9524C92.9524 23.7919 92.5364 25.5243 91.7681 26.579L92.3344 26.9915ZM93.653 21.3129C93.653 19.1383 93.2291 17.4019 92.3368 16.1466L91.7658 16.5526C92.542 17.6446 92.9524 19.2171 92.9524 21.3129H93.653ZM92.3368 16.1466C91.433 14.8751 90.15 14.2388 88.5303 14.2388V14.9394C89.9367 14.9394 91.001 15.4768 91.7658 16.5526L92.3368 16.1466ZM88.5303 14.2388C86.9234 14.2388 85.6538 14.8764 84.7646 16.1489L85.3389 16.5503C86.09 15.4755 87.1395 14.9394 88.5303 14.9394V14.2388ZM84.7658 16.1473C83.8831 17.3952 83.4712 19.2862 83.4712 21.7583H84.1719C84.1719 19.3378 84.5801 17.6231 85.3378 16.5519L84.7658 16.1473ZM114.513 24.8975L114.334 25.1985L114.341 25.2024L114.513 24.8975ZM110.95 23.7309L110.878 24.0738L110.879 24.074L110.95 23.7309ZM105.287 11.6833L105.507 11.9559L105.507 11.9557L105.287 11.6833ZM118.904 11.6833L118.687 11.9583L118.688 11.9592L118.904 11.6833ZM121.534 17.0284V17.3787H121.884V17.0284H121.534ZM115.404 17.0284H115.054V17.3787H115.404V17.0284ZM114.556 14.8649L114.305 15.1095L114.308 15.1126L114.556 14.8649ZM109.614 18.1313L109.419 18.4229L109.427 18.4277L109.614 18.1313ZM112.88 19.2131L112.81 19.5563L112.813 19.5569L112.88 19.2131ZM116.741 20.2312L116.861 19.9023L116.861 19.9021L116.741 20.2312ZM118.904 31.494L119.108 31.7788L119.11 31.7777L118.904 31.494ZM106.814 32.4061L106.666 32.7236L106.669 32.7252L106.814 32.4061ZM103.314 29.5851L103.028 29.7871L103.029 29.7887L103.314 29.5851ZM102.042 25.7035V25.3532H101.691V25.7035H102.042ZM107.853 25.7035L108.203 25.6853L108.186 25.3532H107.853V25.7035ZM114.726 28.4185L114.934 28.7004L114.935 28.6995L114.726 28.4185ZM115.988 26.658C115.988 25.7612 115.526 25.0679 114.686 24.5927L114.341 25.2024C115 25.5756 115.287 26.0559 115.287 26.658H115.988ZM114.693 24.5966C113.905 24.1272 112.67 23.7291 111.021 23.3879L110.879 24.074C112.51 24.4115 113.651 24.7911 114.334 25.1984L114.693 24.5966ZM111.022 23.3881C108.321 22.8213 106.338 21.972 105.036 20.8657C103.748 19.7708 103.113 18.4144 103.113 16.7738H102.412C102.412 18.6259 103.142 20.1754 104.583 21.3996C106.01 22.6123 108.121 23.4952 110.878 24.0738L111.022 23.3881ZM103.113 16.7738C103.113 14.8508 103.901 13.2516 105.507 11.9559L105.067 11.4106C103.308 12.8299 102.412 14.6244 102.412 16.7738H103.113ZM105.507 11.9557C107.127 10.646 109.256 9.97614 111.926 9.97614V9.27551C109.137 9.27551 106.84 9.97722 105.067 11.4108L105.507 11.9557ZM111.926 9.97614C114.785 9.97614 117.027 10.6489 118.687 11.9583L119.121 11.4082C117.303 9.97437 114.892 9.27551 111.926 9.27551V9.97614ZM118.688 11.9592C120.358 13.2656 121.184 14.9463 121.184 17.0284H121.884C121.884 14.7269 120.957 12.8441 119.12 11.4073L118.688 11.9592ZM121.534 16.678H115.404V17.3787H121.534V16.678ZM115.755 17.0284C115.755 16.0685 115.441 15.2551 114.804 14.6171L114.308 15.1126C114.801 15.6059 115.054 16.2347 115.054 17.0284H115.755ZM114.807 14.6202C114.149 13.9461 113.155 13.6449 111.904 13.6449V14.3455C113.058 14.3455 113.832 14.6241 114.305 15.1095L114.807 14.6202ZM111.904 13.6449C110.824 13.6449 109.934 13.889 109.285 14.425L109.731 14.9654C110.212 14.5681 110.921 14.3455 111.904 14.3455V13.6449ZM109.285 14.425C108.64 14.9568 108.309 15.6491 108.309 16.4769H109.01C109.01 15.8623 109.244 15.3668 109.731 14.9654L109.285 14.425ZM108.309 16.4769C108.309 17.2891 108.7 17.9433 109.419 18.4228L109.808 17.8398C109.255 17.4709 109.01 17.0221 109.01 16.4769H108.309ZM109.427 18.4277C110.134 18.8733 111.275 19.2436 112.81 19.5563L112.95 18.8698C111.431 18.5603 110.395 18.2094 109.801 17.835L109.427 18.4277ZM112.813 19.5569C114.329 19.8516 115.597 20.1867 116.62 20.5603L116.861 19.9021C115.792 19.512 114.486 19.1684 112.947 18.8692L112.813 19.5569ZM116.62 20.5601C118.197 21.1385 119.35 21.9178 120.108 22.8817C120.863 23.8414 121.247 25.0087 121.247 26.4035H121.948C121.948 24.8712 121.523 23.5462 120.659 22.4485C119.798 21.3549 118.522 20.5116 116.861 19.9023L116.62 20.5601ZM121.247 26.4035C121.247 28.3763 120.41 29.9707 118.699 31.2103L119.11 31.7777C120.99 30.4155 121.948 28.6162 121.948 26.4035H121.247ZM118.7 31.2093C116.979 32.4427 114.737 33.0739 111.947 33.0739V33.7745C114.841 33.7745 117.238 33.119 119.108 31.7788L118.7 31.2093ZM111.947 33.0739C110.065 33.0739 108.405 32.742 106.958 32.087L106.669 32.7252C108.221 33.4277 109.982 33.7745 111.947 33.7745V33.0739ZM106.962 32.0886C105.525 31.4181 104.408 30.5144 103.599 29.3815L103.029 29.7887C103.917 31.0314 105.133 32.0083 106.666 32.7236L106.962 32.0886ZM103.6 29.3831C102.791 28.2364 102.392 27.0124 102.392 25.7035H101.691C101.691 27.1662 102.141 28.5299 103.028 29.7871L103.6 29.3831ZM102.042 26.0538H107.853V25.3532H102.042V26.0538ZM107.503 25.7217C107.564 26.8954 108.005 27.8315 108.848 28.4835L109.277 27.9293C108.62 27.4217 108.255 26.6893 108.203 25.6853L107.503 25.7217ZM108.848 28.4835C109.676 29.1242 110.764 29.4263 112.074 29.4263V28.7257C110.868 28.7257 109.947 28.4481 109.277 27.9293L108.848 28.4835ZM112.074 29.4263C113.282 29.4263 114.253 29.2025 114.934 28.7003L114.517 28.1366C114.01 28.5112 113.214 28.7257 112.074 28.7257V29.4263ZM114.935 28.6995C115.626 28.1849 115.988 27.4963 115.988 26.658H115.287C115.287 27.262 115.041 27.7471 114.516 28.1375L114.935 28.6995ZM127.897 30.3275L127.652 30.5777L127.653 30.5785L127.897 30.3275ZM126.073 15.3103L126.388 15.465L126.388 15.464L126.073 15.3103ZM129.849 11.1106L130.029 11.411L130.03 11.4105L129.849 11.1106ZM142.851 12.5953L142.591 12.8307L142.592 12.8317L142.851 12.5953ZM145.566 23.5188V23.8691H145.916V23.5188H145.566ZM130.952 23.5188V23.1685H130.552L130.604 23.5647L130.952 23.5188ZM132.733 27.1246L132.497 27.3832L132.499 27.3848L132.733 27.1246ZM142.066 25.9156L142.327 25.6823L142.047 25.3687L141.789 25.7007L142.066 25.9156ZM145.078 29.2881L145.364 29.4903L145.525 29.2627L145.339 29.0548L145.078 29.2881ZM141.345 32.3425L141.491 32.6608L141.494 32.6597L141.345 32.3425ZM132.458 15.8193L132.201 15.5806L132.199 15.583L132.458 15.8193ZM131.015 19.3403L130.668 19.2921L130.613 19.6906H131.015V19.3403ZM139.542 19.3403V19.6906H139.892V19.3403H139.542ZM139.542 18.8525H139.892L139.892 18.8452L139.542 18.8525ZM138.439 15.7133L138.184 15.9537L138.187 15.9561L138.439 15.7133ZM136.127 33.0739C132.839 33.0739 130.188 32.0684 128.142 30.0764L127.653 30.5785C129.849 32.7155 132.684 33.7745 136.127 33.7745V33.0739ZM128.143 30.0772C126.114 28.0895 125.087 25.4353 125.087 22.0765H124.387C124.387 25.59 125.467 28.4364 127.652 30.5777L128.143 30.0772ZM125.087 22.0765V21.4826H124.387V22.0765H125.087ZM125.087 21.4826C125.087 19.2237 125.524 17.2204 126.388 15.465L125.759 15.1556C124.841 17.0201 124.387 19.1317 124.387 21.4826H125.087ZM126.388 15.464C127.251 13.6963 128.465 12.3493 130.029 11.411L129.668 10.8102C127.98 11.8232 126.677 13.2761 125.758 15.1566L126.388 15.464ZM130.03 11.4105C131.61 10.4566 133.413 9.97614 135.448 9.97614V9.27551C133.298 9.27551 131.368 9.78483 129.668 10.8106L130.03 11.4105ZM135.448 9.97614C138.508 9.97614 140.874 10.9371 142.591 12.8307L143.11 12.3599C141.236 10.2942 138.667 9.27551 135.448 9.27551V9.97614ZM142.592 12.8317C144.325 14.7268 145.216 17.4379 145.216 21.016H145.916C145.916 17.3258 144.997 14.4231 143.109 12.3589L142.592 12.8317ZM145.216 21.016V23.5188H145.916V21.016H145.216ZM145.566 23.1685H130.952V23.8691H145.566V23.1685ZM130.604 23.5647C130.812 25.1343 131.439 26.4155 132.497 27.3832L132.97 26.8661C132.049 26.0238 131.488 24.9012 131.299 23.473L130.604 23.5647ZM132.499 27.3848C133.576 28.3554 134.928 28.8324 136.53 28.8324V28.1318C135.077 28.1318 133.899 27.7038 132.968 26.8644L132.499 27.3848ZM136.53 28.8324C138.989 28.8324 140.941 27.9354 142.343 26.1305L141.789 25.7007C140.533 27.3178 138.795 28.1318 136.53 28.1318V28.8324ZM141.805 26.149L144.817 29.5215L145.339 29.0548L142.327 25.6823L141.805 26.149ZM144.792 29.086C143.911 30.3329 142.716 31.3134 141.196 32.0252L141.494 32.6597C143.113 31.901 144.407 30.8452 145.364 29.4903L144.792 29.086ZM141.199 32.0241C139.68 32.7221 137.991 33.0739 136.127 33.0739V33.7745C138.081 33.7745 139.871 33.4052 141.491 32.6608L141.199 32.0241ZM135.427 14.2388C134.123 14.2388 133.037 14.6828 132.201 15.5806L132.714 16.0581C133.405 15.3156 134.299 14.9394 135.427 14.9394V14.2388ZM132.199 15.583C131.387 16.4722 130.887 17.7211 130.668 19.2921L131.362 19.3885C131.568 17.9052 132.03 16.8068 132.716 16.0557L132.199 15.583ZM131.015 19.6906H139.542V18.99H131.015V19.6906ZM139.892 19.3403V18.8525H139.192V19.3403H139.892ZM139.892 18.8452C139.863 17.4294 139.477 16.2878 138.692 15.4705L138.187 15.9561C138.815 16.6094 139.165 17.5605 139.192 18.8598L139.892 18.8452ZM138.694 15.4729C137.904 14.6359 136.798 14.2388 135.427 14.2388V14.9394C136.659 14.9394 137.56 15.2918 138.184 15.9537L138.694 15.4729ZM172.185 27.5489L171.954 27.2859L172.185 27.5489ZM173.288 25.0672V24.7169H172.947L172.938 25.0576L173.288 25.0672ZM179.036 25.0672L179.387 25.0704L179.39 24.7169H179.036V25.0672ZM177.764 29.3518L178.058 29.5423L178.059 29.5409L177.764 29.3518ZM174.328 32.3637L174.482 32.6782L174.483 32.6776L174.328 32.3637ZM161.771 30.3062L161.511 30.5414L161.512 30.5422L161.771 30.3062ZM161.75 12.7862L161.488 12.5529L161.75 12.7862ZM176.385 12.0863L176.144 12.3401L176.146 12.3422L176.385 12.0863ZM179.036 18.5979V18.9483H179.39L179.387 18.5943L179.036 18.5979ZM173.288 18.5979L172.938 18.6063L172.946 18.9483H173.288V18.5979ZM172.185 15.7133L171.93 15.9537L171.933 15.9561L172.185 15.7133ZM166.14 16.1587L165.854 15.9573L165.853 15.9581L166.14 16.1587ZM166.14 26.9337L165.853 27.1344L166.14 26.9337ZM169.428 28.8324C170.626 28.8324 171.633 28.5012 172.417 27.8118L171.954 27.2859C171.323 27.8409 170.492 28.1318 169.428 28.1318V28.8324ZM172.417 27.8118C173.204 27.1188 173.608 26.1959 173.638 25.0768L172.938 25.0576C172.912 26.003 172.58 26.7346 171.954 27.2859L172.417 27.8118ZM173.288 25.4175H179.036V24.7169H173.288V25.4175ZM178.686 25.064C178.672 26.554 178.267 27.9176 177.469 29.1626L178.059 29.5409C178.929 28.184 179.372 26.6913 179.387 25.0704L178.686 25.064ZM177.47 29.1612C176.672 30.392 175.576 31.3548 174.172 32.0497L174.483 32.6776C175.992 31.9303 177.187 30.8851 178.058 29.5423L177.47 29.1612ZM174.173 32.0491C172.783 32.7305 171.239 33.0739 169.534 33.0739V33.7745C171.336 33.7745 172.987 33.4109 174.482 32.6782L174.173 32.0491ZM169.534 33.0739C166.334 33.0739 163.847 32.0638 162.03 30.0702L161.512 30.5422C163.484 32.706 166.173 33.7745 169.534 33.7745V33.0739ZM162.031 30.0711C160.21 28.0603 159.279 25.2689 159.279 21.6523H158.578C158.578 25.3887 159.542 28.3666 161.511 30.5414L162.031 30.0711ZM159.279 21.6523V21.2493H158.578V21.6523H159.279ZM159.279 21.2493C159.279 17.7777 160.201 15.0472 162.011 13.0195L161.488 12.5529C159.537 14.7391 158.578 17.6506 158.578 21.2493H159.279ZM162.011 13.0195C163.814 10.9993 166.293 9.97614 169.492 9.97614V9.27551C166.129 9.27551 163.446 10.3592 161.488 12.5529L162.011 13.0195ZM169.492 9.97614C172.292 9.97614 174.497 10.7741 176.144 12.3401L176.626 11.8324C174.823 10.1179 172.432 9.27551 169.492 9.27551V9.97614ZM176.146 12.3422C177.805 13.8935 178.659 15.9676 178.686 18.6016L179.387 18.5943C179.357 15.7983 178.443 13.5313 176.624 11.8304L176.146 12.3422ZM179.036 18.2476H173.288V18.9483H179.036V18.2476ZM173.638 18.5896C173.608 17.3296 173.215 16.2793 172.438 15.4705L171.933 15.9561C172.569 16.6179 172.911 17.4907 172.938 18.6063L173.638 18.5896ZM172.44 15.4729C171.658 14.6442 170.628 14.2388 169.385 14.2388V14.9394C170.462 14.9394 171.298 15.2835 171.93 15.9537L172.44 15.4729ZM169.385 14.2388C167.859 14.2388 166.663 14.8056 165.854 15.9573L166.427 16.3601C167.088 15.4191 168.056 14.9394 169.385 14.9394V14.2388ZM165.853 15.9581C165.068 17.0812 164.708 18.8546 164.708 21.2069H165.409C165.409 18.8927 165.77 17.3008 166.427 16.3593L165.853 15.9581ZM164.708 21.2069V21.8432H165.409V21.2069H164.708ZM164.708 21.8432C164.708 24.2226 165.068 26.0108 165.853 27.1344L166.427 26.7331C165.77 25.7922 165.409 24.1867 165.409 21.8432H164.708ZM165.853 27.1344C166.651 28.2772 167.865 28.8324 169.428 28.8324V28.1318C168.05 28.1318 167.071 27.6548 166.427 26.7331L165.853 27.1344ZM195.432 15.7981L195.385 16.1453L195.777 16.1984L195.782 15.8032L195.432 15.7981ZM188.666 17.9828L188.348 17.8366L188.316 17.9062V17.9828H188.666ZM188.666 33V33.3503H189.016V33H188.666ZM182.536 33H182.186V33.3503H182.536V33ZM182.536 10.05V9.69972H182.186V10.05H182.536ZM188.327 10.05L188.676 10.0284L188.656 9.69972H188.327V10.05ZM188.496 12.7862L188.147 12.8079L188.218 13.9577L188.799 12.9629L188.496 12.7862ZM195.517 9.90156L195.867 9.9066L195.871 9.64443L195.621 9.56691L195.517 9.90156ZM195.479 15.451C194.634 15.3364 193.882 15.2781 193.226 15.2781V15.9788C193.843 15.9788 194.562 16.0336 195.385 16.1453L195.479 15.451ZM193.226 15.2781C190.826 15.2781 189.146 16.099 188.348 17.8366L188.984 18.1291C189.628 16.7275 190.989 15.9788 193.226 15.9788V15.2781ZM188.316 17.9828V33H189.016V17.9828H188.316ZM188.666 32.6497H182.536V33.3503H188.666V32.6497ZM182.886 33V10.05H182.186V33H182.886ZM182.536 10.4004H188.327V9.69972H182.536V10.4004ZM187.977 10.0717L188.147 12.8079L188.846 12.7645L188.676 10.0284L187.977 10.0717ZM188.799 12.9629C189.975 10.9479 191.572 9.97614 193.608 9.97614V9.27551C191.289 9.27551 189.478 10.4107 188.194 12.6096L188.799 12.9629ZM193.608 9.97614C194.255 9.97614 194.856 10.0637 195.413 10.2362L195.621 9.56691C194.99 9.37179 194.319 9.27551 193.608 9.27551V9.97614ZM195.167 9.89652L195.082 15.7931L195.782 15.8032L195.867 9.9066L195.167 9.89652ZM200.311 30.3275L200.065 30.5777L200.066 30.5785L200.311 30.3275ZM198.487 15.3103L198.801 15.465L198.801 15.464L198.487 15.3103ZM202.262 11.1106L202.442 11.411L202.443 11.4105L202.262 11.1106ZM215.264 12.5953L215.005 12.8307L215.006 12.8317L215.264 12.5953ZM217.979 23.5188V23.8691H218.329V23.5188H217.979ZM203.365 23.5188V23.1685H202.965L203.018 23.5647L203.365 23.5188ZM205.147 27.1246L204.91 27.3832L204.912 27.3848L205.147 27.1246ZM214.479 25.9156L214.741 25.6823L214.461 25.3687L214.203 25.7007L214.479 25.9156ZM217.491 29.2881L217.777 29.4903L217.938 29.2627L217.753 29.0548L217.491 29.2881ZM213.758 32.3425L213.904 32.6608L213.907 32.6597L213.758 32.3425ZM204.871 15.8193L204.615 15.5806L204.612 15.583L204.871 15.8193ZM203.429 19.3403L203.082 19.2921L203.026 19.6906H203.429V19.3403ZM211.955 19.3403V19.6906H212.306V19.3403H211.955ZM211.955 18.8525H212.306L212.306 18.8452L211.955 18.8525ZM210.852 15.7133L210.598 15.9537L210.6 15.9561L210.852 15.7133ZM208.54 33.0739C205.253 33.0739 202.602 32.0684 200.555 30.0764L200.066 30.5785C202.262 32.7155 205.097 33.7745 208.54 33.7745V33.0739ZM200.556 30.0772C198.527 28.0895 197.501 25.4353 197.501 22.0765H196.8C196.8 25.59 197.88 28.4364 200.065 30.5777L200.556 30.0772ZM197.501 22.0765V21.4826H196.8V22.0765H197.501ZM197.501 21.4826C197.501 19.2237 197.937 17.2204 198.801 15.465L198.172 15.1556C197.255 17.0201 196.8 19.1317 196.8 21.4826H197.501ZM198.801 15.464C199.665 13.6963 200.878 12.3493 202.442 11.411L202.082 10.8102C200.393 11.8232 199.09 13.2761 198.172 15.1566L198.801 15.464ZM202.443 11.4105C204.024 10.4566 205.827 9.97614 207.862 9.97614V9.27551C205.711 9.27551 203.781 9.78483 202.081 10.8106L202.443 11.4105ZM207.862 9.97614C210.921 9.97614 213.287 10.9371 215.005 12.8307L215.524 12.3599C213.65 10.2942 211.081 9.27551 207.862 9.27551V9.97614ZM215.006 12.8317C216.738 14.7268 217.629 17.4379 217.629 21.016H218.329C218.329 17.3258 217.41 14.4231 215.523 12.3589L215.006 12.8317ZM217.629 21.016V23.5188H218.329V21.016H217.629ZM217.979 23.1685H203.365V23.8691H217.979V23.1685ZM203.018 23.5647C203.225 25.1343 203.852 26.4155 204.91 27.3832L205.383 26.8661C204.462 26.0238 203.901 24.9012 203.712 23.473L203.018 23.5647ZM204.912 27.3848C205.989 28.3554 207.342 28.8324 208.943 28.8324V28.1318C207.491 28.1318 206.312 27.7038 205.381 26.8644L204.912 27.3848ZM208.943 28.8324C211.402 28.8324 213.354 27.9354 214.756 26.1305L214.203 25.7007C212.946 27.3178 211.208 28.1318 208.943 28.1318V28.8324ZM214.218 26.149L217.23 29.5215L217.753 29.0548L214.741 25.6823L214.218 26.149ZM217.205 29.086C216.324 30.3329 215.129 31.3134 213.61 32.0252L213.907 32.6597C215.526 31.901 216.82 30.8452 217.777 29.4903L217.205 29.086ZM213.612 32.0241C212.093 32.7221 210.404 33.0739 208.54 33.0739V33.7745C210.494 33.7745 212.284 33.4052 213.904 32.6608L213.612 32.0241ZM207.84 14.2388C206.536 14.2388 205.45 14.6828 204.615 15.5806L205.127 16.0581C205.819 15.3156 206.712 14.9394 207.84 14.9394V14.2388ZM204.612 15.583C203.8 16.4722 203.3 17.7211 203.082 19.2921L203.776 19.3885C203.982 17.9052 204.443 16.8068 205.13 16.0557L204.612 15.583ZM203.429 19.6906H211.955V18.99H203.429V19.6906ZM212.306 19.3403V18.8525H211.605V19.3403H212.306ZM212.306 18.8452C212.276 17.4294 211.891 16.2878 211.105 15.4705L210.6 15.9561C211.228 16.6094 211.578 17.5605 211.605 18.8598L212.306 18.8452ZM211.107 15.4729C210.318 14.6359 209.211 14.2388 207.84 14.2388V14.9394C209.072 14.9394 209.973 15.2918 210.598 15.9537L211.107 15.4729ZM234.778 33L234.466 33.1599L234.564 33.3503H234.778V33ZM234.163 30.9426L234.509 30.8888L234.396 30.1586L233.902 30.7086L234.163 30.9426ZM222.773 31.4728L222.541 31.7352L222.542 31.7363L222.773 31.4728ZM223.261 20.9523L223.056 20.6679L223.055 20.6686L223.261 20.9523ZM231.087 18.9797V18.6294L231.086 18.6294L231.087 18.9797ZM233.908 18.9797V19.3301H234.259V18.9797H233.908ZM233.081 15.1194L232.813 15.3454L232.816 15.3488L233.081 15.1194ZM228.075 14.9073L227.851 14.6381L227.848 14.6408L228.075 14.9073ZM227.206 16.9435V17.2938H227.556V16.9435H227.206ZM221.076 16.9435H220.726V17.2938H221.076V16.9435ZM225.785 10.6015L225.922 10.924L225.924 10.9229L225.785 10.6015ZM237.557 11.7681L237.328 12.0333L237.33 12.0354L237.557 11.7681ZM240.059 27.6973H239.709L239.709 27.6996L240.059 27.6973ZM240.972 32.6394H241.322V32.5521L241.281 32.475L240.972 32.6394ZM240.972 33V33.3503H241.322V33H240.972ZM232.212 28.1428L232.373 28.4538L232.377 28.4514L232.212 28.1428ZM233.908 26.5095L234.216 26.6764L234.259 26.5983V26.5095H233.908ZM233.908 22.5643H234.259V22.214H233.908V22.5643ZM226.718 25.7459L226.369 25.7134L226.368 25.7254L226.718 25.7459ZM226.697 26.1065L226.347 26.086L226.346 26.0962V26.1065H226.697ZM227.503 27.9943L227.74 27.7366L227.503 27.9943ZM235.09 32.8401C234.829 32.3311 234.632 31.6837 234.509 30.8888L233.817 30.9963C233.948 31.8417 234.162 32.5659 234.466 33.1599L235.09 32.8401ZM233.902 30.7086C232.489 32.2834 230.656 33.0739 228.372 33.0739V33.7745C230.84 33.7745 232.867 32.9106 234.424 31.1765L233.902 30.7086ZM228.372 33.0739C226.196 33.0739 224.416 32.4465 223.004 31.2093L222.542 31.7363C224.099 33.101 226.052 33.7745 228.372 33.7745V33.0739ZM223.005 31.2104C221.61 29.9766 220.917 28.4322 220.917 26.552H220.217C220.217 28.631 220.994 30.3672 222.541 31.7352L223.005 31.2104ZM220.917 26.552C220.917 24.2195 221.771 22.464 223.466 21.236L223.055 20.6686C221.159 22.0425 220.217 24.0201 220.217 26.552H220.917ZM223.465 21.2368C225.192 19.9955 227.718 19.344 231.089 19.3301L231.086 18.6294C227.641 18.6437 224.949 19.3073 223.056 20.6679L223.465 21.2368ZM231.087 19.3301H233.908V18.6294H231.087V19.3301ZM234.259 18.9797V17.6647H233.558V18.9797H234.259ZM234.259 17.6647C234.259 16.5424 233.966 15.6052 233.346 14.89L232.816 15.3488C233.3 15.9063 233.558 16.6659 233.558 17.6647H234.259ZM233.349 14.8934C232.721 14.1499 231.748 13.8146 230.515 13.8146V14.5152C231.629 14.5152 232.367 14.8162 232.813 15.3454L233.349 14.8934ZM230.515 13.8146C229.428 13.8146 228.526 14.0755 227.851 14.6382L228.3 15.1764C228.812 14.7493 229.537 14.5152 230.515 14.5152V13.8146ZM227.848 14.6408C227.179 15.2115 226.855 15.9935 226.855 16.9435H227.556C227.556 16.1684 227.812 15.5929 228.303 15.1737L227.848 14.6408ZM227.206 16.5932H221.076V17.2938H227.206V16.5932ZM221.426 16.9435C221.426 15.6921 221.811 14.5332 222.59 13.4585L222.022 13.0472C221.161 14.235 220.726 15.5365 220.726 16.9435H221.426ZM222.59 13.4585C223.367 12.3868 224.471 11.5396 225.922 10.924L225.648 10.2791C224.1 10.9361 222.886 11.8564 222.022 13.0472L222.59 13.4585ZM225.924 10.9229C227.373 10.294 229.007 9.97614 230.833 9.97614V9.27551C228.925 9.27551 227.194 9.60806 225.645 10.2802L225.924 10.9229ZM230.833 9.97614C233.602 9.97614 235.754 10.6745 237.328 12.0333L237.786 11.5029C236.051 10.0053 233.72 9.27551 230.833 9.27551V9.97614ZM237.33 12.0354C238.906 13.3708 239.709 15.2588 239.709 17.7495H240.41C240.41 15.0931 239.544 12.9935 237.783 11.5008L237.33 12.0354ZM239.709 17.7495V27.6973H240.41V17.7495H239.709ZM239.709 27.6996C239.723 29.8984 240.029 31.6129 240.662 32.8039L241.281 32.475C240.726 31.4318 240.424 29.8515 240.41 27.6951L239.709 27.6996ZM240.621 32.6394V33H241.322V32.6394H240.621ZM240.972 32.6497H234.778V33.3503H240.972V32.6497ZM229.709 29.087C230.667 29.087 231.557 28.8769 232.373 28.4538L232.05 27.8318C231.339 28.2005 230.561 28.3863 229.709 28.3863V29.087ZM232.377 28.4514C233.193 28.0131 233.812 27.4225 234.216 26.6764L233.6 26.3427C233.269 26.9541 232.757 27.4523 232.046 27.8341L232.377 28.4514ZM234.259 26.5095V22.5643H233.558V26.5095H234.259ZM233.908 22.214H231.618V22.9147H233.908V22.214ZM231.618 22.214C230.051 22.214 228.798 22.4832 227.901 23.0659C226.985 23.6605 226.477 24.5577 226.369 25.7134L227.067 25.7785C227.157 24.8132 227.565 24.1195 228.282 23.6536C229.018 23.1757 230.115 22.9147 231.618 22.9147V22.214ZM226.368 25.7254L226.347 26.086L227.046 26.1271L227.068 25.7665L226.368 25.7254ZM226.346 26.1065C226.346 26.963 226.652 27.6874 227.265 28.252L227.74 27.7366C227.278 27.3113 227.047 26.7772 227.047 26.1065H226.346ZM227.265 28.252C227.884 28.8216 228.713 29.087 229.709 29.087V28.3863C228.838 28.3863 228.196 28.1568 227.74 27.7366L227.265 28.252ZM252.107 4.40799H252.457V4.05768H252.107V4.40799ZM252.107 10.05H251.757V10.4004H252.107V10.05ZM256.031 10.05H256.381V9.69972H256.031V10.05ZM256.031 14.5467V14.897H256.381V14.5467H256.031ZM252.107 14.5467V14.1964H251.757V14.5467H252.107ZM252.595 27.8246L252.857 27.5925L252.595 27.8246ZM256.264 28.2276H256.615V27.8048L256.199 27.8834L256.264 28.2276ZM256.264 32.8727L256.367 33.2077L256.615 33.1319V32.8727H256.264ZM245.977 26.9125H245.627L245.627 26.9194L245.977 26.9125ZM245.977 14.5467H246.328V14.1964H245.977V14.5467ZM242.626 14.5467H242.276V14.897H242.626V14.5467ZM242.626 10.05V9.69972H242.276V10.05H242.626ZM245.977 10.05V10.4004H246.328V10.05H245.977ZM245.977 4.40799V4.05768H245.627V4.40799H245.977ZM251.757 4.40799V10.05H252.457V4.40799H251.757ZM252.107 10.4004H256.031V9.69972H252.107V10.4004ZM255.681 10.05V14.5467H256.381V10.05H255.681ZM256.031 14.1964H252.107V14.897H256.031V14.1964ZM251.757 14.5467V26.0005H252.457V14.5467H251.757ZM251.757 26.0005C251.757 26.8775 251.922 27.5924 252.333 28.0567L252.857 27.5925C252.618 27.3215 252.457 26.8203 252.457 26.0005H251.757ZM252.333 28.0567C252.763 28.5437 253.522 28.7264 254.462 28.7264V28.0258C253.563 28.0258 253.077 27.8408 252.857 27.5925L252.333 28.0567ZM254.462 28.7264C255.156 28.7264 255.78 28.6758 256.33 28.5718L256.199 27.8834C255.702 27.9774 255.124 28.0258 254.462 28.0258V28.7264ZM255.914 28.2276V32.8727H256.615V28.2276H255.914ZM256.162 32.5377C254.994 32.8951 253.791 33.0739 252.553 33.0739V33.7745C253.859 33.7745 255.131 33.5857 256.367 33.2077L256.162 32.5377ZM252.553 33.0739C250.459 33.0739 248.939 32.5457 247.931 31.5474C246.923 30.5485 246.369 29.0226 246.327 26.9057L245.627 26.9194C245.67 29.1436 246.255 30.8736 247.438 32.0452C248.622 33.2175 250.348 33.7745 252.553 33.7745V33.0739ZM246.328 26.9125V14.5467H245.627V26.9125H246.328ZM245.977 14.1964H242.626V14.897H245.977V14.1964ZM242.976 14.5467V10.05H242.276V14.5467H242.976ZM242.626 10.4004H245.977V9.69972H242.626V10.4004ZM246.328 10.05V4.40799H245.627V10.05H246.328ZM245.977 4.75831H252.107V4.05768H245.977V4.75831ZM265.915 33V33.3503H266.266V33H265.915ZM259.764 33H259.414V33.3503H259.764V33ZM259.764 10.05V9.69972H259.414V10.05H259.764ZM265.915 10.05H266.266V9.69972H265.915V10.05ZM260.316 1.8415L260.074 1.58808L260.071 1.59089L260.316 1.8415ZM265.321 6.4018L265.082 6.14568L265.079 6.14839L265.321 6.4018ZM260.337 6.4018L260.095 6.65522L260.098 6.6579L260.337 6.4018ZM265.915 32.6497H259.764V33.3503H265.915V32.6497ZM260.115 33V10.05H259.414V33H260.115ZM259.764 10.4004H265.915V9.69972H259.764V10.4004ZM265.565 10.05V33H266.266V10.05H265.565ZM259.754 4.11104C259.754 3.27775 260.026 2.61437 260.56 2.09211L260.071 1.59089C259.389 2.25642 259.053 3.10608 259.053 4.11104H259.754ZM260.558 2.0949C261.1 1.57697 261.847 1.30097 262.84 1.30097V0.600333C261.711 0.600333 260.776 0.918236 260.074 1.5881L260.558 2.0949ZM262.84 1.30097C263.817 1.30097 264.557 1.57614 265.101 2.0949L265.585 1.5881C264.884 0.919065 263.956 0.600333 262.84 0.600333V1.30097ZM265.101 2.0949C265.649 2.61781 265.926 3.28032 265.926 4.11104H266.626C266.626 3.10351 266.281 2.25299 265.585 1.5881L265.101 2.0949ZM265.926 4.11104C265.926 4.95506 265.642 5.62322 265.082 6.1457L265.56 6.6579C266.273 5.99258 266.626 5.13357 266.626 4.11104H265.926ZM265.079 6.14839C264.535 6.66801 263.801 6.94233 262.84 6.94233V7.64297C263.943 7.64297 264.863 7.32339 265.563 6.6552L265.079 6.14839ZM262.84 6.94233C261.879 6.94233 261.136 6.66806 260.576 6.1457L260.098 6.6579C260.811 7.32333 261.736 7.64297 262.84 7.64297V6.94233ZM260.579 6.14839C260.032 5.62659 259.754 4.95762 259.754 4.11104H259.053C259.053 5.13101 259.397 5.9892 260.095 6.6552L260.579 6.14839ZM279.575 25.5126L279.237 25.6057L279.575 26.8306L279.913 25.6057L279.575 25.5126ZM283.838 10.05V9.69972H283.572L283.501 9.95692L283.838 10.05ZM290.244 10.05L290.576 10.162L290.732 9.69972H290.244V10.05ZM282.502 33V33.3503H282.754L282.834 33.112L282.502 33ZM276.648 33L276.316 33.112L276.396 33.3503H276.648V33ZM268.906 10.05V9.69972H268.418L268.574 10.162L268.906 10.05ZM275.312 10.05L275.649 9.95692L275.578 9.69972H275.312V10.05ZM279.913 25.6057L284.176 10.1432L283.501 9.95692L279.237 25.4195L279.913 25.6057ZM283.838 10.4004H290.244V9.69972H283.838V10.4004ZM289.912 9.93806L282.17 32.888L282.834 33.112L290.576 10.162L289.912 9.93806ZM282.502 32.6497H276.648V33.3503H282.502V32.6497ZM276.98 32.888L269.238 9.93806L268.574 10.162L276.316 33.112L276.98 32.888ZM268.906 10.4004H275.312V9.69972H268.906V10.4004ZM274.974 10.1432L279.237 25.6057L279.913 25.4195L275.649 9.95692L274.974 10.1432ZM294.995 30.3275L294.75 30.5777L294.751 30.5785L294.995 30.3275ZM293.171 15.3103L293.485 15.465L293.486 15.464L293.171 15.3103ZM296.947 11.1106L297.127 11.411L297.128 11.4105L296.947 11.1106ZM309.949 12.5953L309.689 12.8307L309.69 12.8317L309.949 12.5953ZM312.664 23.5188V23.8691H313.014V23.5188H312.664ZM298.049 23.5188V23.1685H297.65L297.702 23.5647L298.049 23.5188ZM299.831 27.1246L299.595 27.3832L299.597 27.3848L299.831 27.1246ZM309.164 25.9156L309.425 25.6823L309.145 25.3687L308.887 25.7007L309.164 25.9156ZM312.176 29.2881L312.462 29.4903L312.623 29.2627L312.437 29.0548L312.176 29.2881ZM308.443 32.3425L308.589 32.6608L308.591 32.6597L308.443 32.3425ZM299.555 15.8193L299.299 15.5806L299.297 15.583L299.555 15.8193ZM298.113 19.3403L297.766 19.2921L297.711 19.6906H298.113V19.3403ZM306.64 19.3403V19.6906H306.99V19.3403H306.64ZM306.64 18.8525H306.99L306.99 18.8452L306.64 18.8525ZM305.537 15.7133L305.282 15.9537L305.284 15.9561L305.537 15.7133ZM303.225 33.0739C299.937 33.0739 297.286 32.0684 295.24 30.0764L294.751 30.5785C296.946 32.7155 299.782 33.7745 303.225 33.7745V33.0739ZM295.24 30.0772C293.212 28.0895 292.185 25.4353 292.185 22.0765H291.484C291.484 25.59 292.565 28.4364 294.75 30.5777L295.24 30.0772ZM292.185 22.0765V21.4826H291.484V22.0765H292.185ZM292.185 21.4826C292.185 19.2237 292.621 17.2204 293.485 15.465L292.857 15.1556C291.939 17.0201 291.484 19.1317 291.484 21.4826H292.185ZM293.486 15.464C294.349 13.6963 295.563 12.3493 297.127 11.411L296.766 10.8102C295.078 11.8232 293.775 13.2761 292.856 15.1566L293.486 15.464ZM297.128 11.4105C298.708 10.4566 300.511 9.97614 302.546 9.97614V9.27551C300.396 9.27551 298.465 9.78483 296.766 10.8106L297.128 11.4105ZM302.546 9.97614C305.605 9.97614 307.971 10.9371 309.689 12.8307L310.208 12.3599C308.334 10.2942 305.765 9.27551 302.546 9.27551V9.97614ZM309.69 12.8317C311.423 14.7268 312.313 17.4379 312.313 21.016H313.014C313.014 17.3258 312.095 14.4231 310.207 12.3589L309.69 12.8317ZM312.313 21.016V23.5188H313.014V21.016H312.313ZM312.664 23.1685H298.049V23.8691H312.664V23.1685ZM297.702 23.5647C297.909 25.1343 298.536 26.4155 299.595 27.3832L300.068 26.8661C299.146 26.0238 298.585 24.9012 298.397 23.473L297.702 23.5647ZM299.597 27.3848C300.673 28.3554 302.026 28.8324 303.628 28.8324V28.1318C302.175 28.1318 300.997 27.7038 300.066 26.8644L299.597 27.3848ZM303.628 28.8324C306.086 28.8324 308.038 27.9354 309.441 26.1305L308.887 25.7007C307.631 27.3178 305.892 28.1318 303.628 28.1318V28.8324ZM308.903 26.149L311.915 29.5215L312.437 29.0548L309.425 25.6823L308.903 26.149ZM311.89 29.086C311.009 30.3329 309.814 31.3134 308.294 32.0252L308.591 32.6597C310.211 31.901 311.505 30.8452 312.462 29.4903L311.89 29.086ZM308.296 32.0241C306.777 32.7221 305.089 33.0739 303.225 33.0739V33.7745C305.179 33.7745 306.969 33.4052 308.589 32.6608L308.296 32.0241ZM302.525 14.2388C301.221 14.2388 300.135 14.6828 299.299 15.5806L299.812 16.0581C300.503 15.3156 301.397 14.9394 302.525 14.9394V14.2388ZM299.297 15.583C298.484 16.4722 297.984 17.7211 297.766 19.2921L298.46 19.3885C298.666 17.9052 299.128 16.8068 299.814 16.0557L299.297 15.583ZM298.113 19.6906H306.64V18.99H298.113V19.6906ZM306.99 19.3403V18.8525H306.289V19.3403H306.99ZM306.99 18.8452C306.961 17.4294 306.575 16.2878 305.789 15.4705L305.284 15.9561C305.912 16.6094 306.263 17.5605 306.29 18.8598L306.99 18.8452ZM305.792 15.4729C305.002 14.6359 303.895 14.2388 302.525 14.2388V14.9394C303.756 14.9394 304.658 15.2918 305.282 15.9537L305.792 15.4729ZM339.877 15.7981L339.83 16.1453L340.222 16.1984L340.227 15.8032L339.877 15.7981ZM333.111 17.9828L332.792 17.8366L332.76 17.9062V17.9828H333.111ZM333.111 33V33.3503H333.461V33H333.111ZM326.981 33H326.631V33.3503H326.981V33ZM326.981 10.05V9.69972H326.631V10.05H326.981ZM332.771 10.05L333.121 10.0284L333.101 9.69972H332.771V10.05ZM332.941 12.7862L332.591 12.8079L332.663 13.9577L333.244 12.9629L332.941 12.7862ZM339.962 9.90156L340.312 9.9066L340.316 9.64443L340.065 9.56691L339.962 9.90156ZM339.924 15.451C339.079 15.3364 338.327 15.2781 337.671 15.2781V15.9788C338.288 15.9788 339.007 16.0336 339.83 16.1453L339.924 15.451ZM337.671 15.2781C335.271 15.2781 333.591 16.099 332.792 17.8366L333.429 18.1291C334.073 16.7275 335.433 15.9788 337.671 15.9788V15.2781ZM332.76 17.9828V33H333.461V17.9828H332.76ZM333.111 32.6497H326.981V33.3503H333.111V32.6497ZM327.331 33V10.05H326.631V33H327.331ZM326.981 10.4004H332.771V9.69972H326.981V10.4004ZM332.422 10.0717L332.591 12.8079L333.291 12.7645L333.121 10.0284L332.422 10.0717ZM333.244 12.9629C334.42 10.9479 336.017 9.97614 338.053 9.97614V9.27551C335.734 9.27551 333.922 10.4107 332.639 12.6096L333.244 12.9629ZM338.053 9.97614C338.7 9.97614 339.301 10.0637 339.858 10.2362L340.065 9.56691C339.435 9.37179 338.763 9.27551 338.053 9.27551V9.97614ZM339.612 9.89652L339.527 15.7931L340.227 15.8032L340.312 9.9066L339.612 9.89652ZM344.755 30.3275L344.51 30.5777L344.511 30.5785L344.755 30.3275ZM342.931 15.3103L343.246 15.465L343.246 15.464L342.931 15.3103ZM346.707 11.1106L346.887 11.411L346.888 11.4105L346.707 11.1106ZM359.709 12.5953L359.449 12.8307L359.45 12.8317L359.709 12.5953ZM362.424 23.5188V23.8691H362.774V23.5188H362.424ZM347.81 23.5188V23.1685H347.41L347.462 23.5647L347.81 23.5188ZM349.591 27.1246L349.355 27.3832L349.357 27.3848L349.591 27.1246ZM358.924 25.9156L359.185 25.6823L358.905 25.3687L358.647 25.7007L358.924 25.9156ZM361.936 29.2881L362.222 29.4903L362.383 29.2627L362.197 29.0548L361.936 29.2881ZM358.203 32.3425L358.349 32.6608L358.352 32.6597L358.203 32.3425ZM349.316 15.8193L349.059 15.5806L349.057 15.583L349.316 15.8193ZM347.873 19.3403L347.526 19.2921L347.471 19.6906H347.873V19.3403ZM356.4 19.3403V19.6906H356.75V19.3403H356.4ZM356.4 18.8525H356.75L356.75 18.8452L356.4 18.8525ZM355.297 15.7133L355.042 15.9537L355.045 15.9561L355.297 15.7133ZM352.985 33.0739C349.697 33.0739 347.046 32.0684 345 30.0764L344.511 30.5785C346.707 32.7155 349.542 33.7745 352.985 33.7745V33.0739ZM345.001 30.0772C342.972 28.0895 341.945 25.4353 341.945 22.0765H341.245C341.245 25.59 342.325 28.4364 344.51 30.5777L345.001 30.0772ZM341.945 22.0765V21.4826H341.245V22.0765H341.945ZM341.945 21.4826C341.945 19.2237 342.382 17.2204 343.246 15.465L342.617 15.1556C341.699 17.0201 341.245 19.1317 341.245 21.4826H341.945ZM343.246 15.464C344.109 13.6963 345.323 12.3493 346.887 11.411L346.527 10.8102C344.838 11.8232 343.535 13.2761 342.616 15.1566L343.246 15.464ZM346.888 11.4105C348.468 10.4566 350.271 9.97614 352.306 9.97614V9.27551C350.156 9.27551 348.226 9.78483 346.526 10.8106L346.888 11.4105ZM352.306 9.97614C355.366 9.97614 357.732 10.9371 359.449 12.8307L359.968 12.3599C358.094 10.2942 355.526 9.27551 352.306 9.27551V9.97614ZM359.45 12.8317C361.183 14.7268 362.074 17.4379 362.074 21.016H362.774C362.774 17.3258 361.855 14.4231 359.967 12.3589L359.45 12.8317ZM362.074 21.016V23.5188H362.774V21.016H362.074ZM362.424 23.1685H347.81V23.8691H362.424V23.1685ZM347.462 23.5647C347.67 25.1343 348.297 26.4155 349.355 27.3832L349.828 26.8661C348.907 26.0238 348.346 24.9012 348.157 23.473L347.462 23.5647ZM349.357 27.3848C350.434 28.3554 351.786 28.8324 353.388 28.8324V28.1318C351.936 28.1318 350.757 27.7038 349.826 26.8644L349.357 27.3848ZM353.388 28.8324C355.847 28.8324 357.799 27.9354 359.201 26.1305L358.647 25.7007C357.391 27.3178 355.653 28.1318 353.388 28.1318V28.8324ZM358.663 26.149L361.675 29.5215L362.197 29.0548L359.185 25.6823L358.663 26.149ZM361.65 29.086C360.769 30.3329 359.574 31.3134 358.054 32.0252L358.352 32.6597C359.971 31.901 361.265 30.8452 362.222 29.4903L361.65 29.086ZM358.057 32.0241C356.538 32.7221 354.849 33.0739 352.985 33.0739V33.7745C354.939 33.7745 356.729 33.4052 358.349 32.6608L358.057 32.0241ZM352.285 14.2388C350.981 14.2388 349.895 14.6828 349.059 15.5806L349.572 16.0581C350.263 15.3156 351.157 14.9394 352.285 14.9394V14.2388ZM349.057 15.583C348.245 16.4722 347.745 17.7211 347.526 19.2921L348.22 19.3885C348.426 17.9052 348.888 16.8068 349.574 16.0557L349.057 15.583ZM347.873 19.6906H356.4V18.99H347.873V19.6906ZM356.75 19.3403V18.8525H356.05V19.3403H356.75ZM356.75 18.8452C356.721 17.4294 356.336 16.2878 355.55 15.4705L355.045 15.9561C355.673 16.6094 356.023 17.5605 356.05 18.8598L356.75 18.8452ZM355.552 15.4729C354.762 14.6359 353.656 14.2388 352.285 14.2388V14.9394C353.517 14.9394 354.418 15.2918 355.042 15.9537L355.552 15.4729ZM377.229 24.8975L377.05 25.1985L377.056 25.2024L377.229 24.8975ZM373.666 23.7309L373.594 24.0738L373.595 24.074L373.666 23.7309ZM368.002 11.6833L368.222 11.9559L368.223 11.9557L368.002 11.6833ZM381.62 11.6833L381.403 11.9583L381.404 11.9592L381.62 11.6833ZM384.25 17.0284V17.3787H384.6V17.0284H384.25ZM378.12 17.0284H377.77V17.3787H378.12V17.0284ZM377.271 14.8649L377.021 15.1095L377.024 15.1126L377.271 14.8649ZM372.329 18.1313L372.135 18.4229L372.142 18.4277L372.329 18.1313ZM375.596 19.2131L375.526 19.5563L375.529 19.5569L375.596 19.2131ZM379.456 20.2312L379.577 19.9023L379.576 19.9021L379.456 20.2312ZM381.62 31.494L381.824 31.7788L381.825 31.7777L381.62 31.494ZM369.53 32.4061L369.381 32.7236L369.385 32.7252L369.53 32.4061ZM366.03 29.5851L365.744 29.7871L365.745 29.7887L366.03 29.5851ZM364.757 25.7035V25.3532H364.407V25.7035H364.757ZM370.569 25.7035L370.919 25.6853L370.901 25.3532H370.569V25.7035ZM377.441 28.4185L377.649 28.7004L377.65 28.6995L377.441 28.4185ZM378.703 26.658C378.703 25.7612 378.241 25.0679 377.402 24.5927L377.056 25.2024C377.716 25.5756 378.003 26.0559 378.003 26.658H378.703ZM377.408 24.5966C376.621 24.1272 375.386 23.7291 373.737 23.3879L373.595 24.074C375.226 24.4115 376.366 24.7911 377.05 25.1984L377.408 24.5966ZM373.738 23.3881C371.037 22.8213 369.054 21.972 367.752 20.8657C366.463 19.7708 365.829 18.4144 365.829 16.7738H365.128C365.128 18.6259 365.858 20.1754 367.298 21.3996C368.725 22.6123 370.836 23.4952 373.594 24.0738L373.738 23.3881ZM365.829 16.7738C365.829 14.8508 366.616 13.2516 368.222 11.9559L367.782 11.4106C366.023 12.8299 365.128 14.6244 365.128 16.7738H365.829ZM368.223 11.9557C369.843 10.646 371.972 9.97614 374.641 9.97614V9.27551C371.853 9.27551 369.556 9.97722 367.782 11.4108L368.223 11.9557ZM374.641 9.97614C377.5 9.97614 379.742 10.6489 381.403 11.9583L381.837 11.4082C380.018 9.97437 377.608 9.27551 374.641 9.27551V9.97614ZM381.404 11.9592C383.074 13.2656 383.899 14.9463 383.899 17.0284H384.6C384.6 14.7269 383.672 12.8441 381.835 11.4073L381.404 11.9592ZM384.25 16.678H378.12V17.3787H384.25V16.678ZM378.47 17.0284C378.47 16.0685 378.157 15.2551 377.519 14.6171L377.024 15.1126C377.517 15.6059 377.77 16.2347 377.77 17.0284H378.47ZM377.522 14.6202C376.864 13.9461 375.871 13.6449 374.62 13.6449V14.3455C375.773 14.3455 376.547 14.6241 377.021 15.1095L377.522 14.6202ZM374.62 13.6449C373.539 13.6449 372.65 13.889 372 14.425L372.446 14.9654C372.928 14.5681 373.636 14.3455 374.62 14.3455V13.6449ZM372 14.425C371.356 14.9568 371.025 15.6491 371.025 16.4769H371.725C371.725 15.8623 371.96 15.3668 372.446 14.9654L372 14.425ZM371.025 16.4769C371.025 17.2891 371.416 17.9433 372.135 18.4228L372.524 17.8398C371.97 17.4709 371.725 17.0221 371.725 16.4769H371.025ZM372.142 18.4277C372.849 18.8733 373.991 19.2436 375.526 19.5563L375.666 18.8698C374.146 18.5603 373.11 18.2094 372.516 17.835L372.142 18.4277ZM375.529 19.5569C377.044 19.8516 378.312 20.1867 379.336 20.5603L379.576 19.9021C378.507 19.512 377.201 19.1684 375.663 18.8692L375.529 19.5569ZM379.335 20.5601C380.912 21.1385 382.065 21.9178 382.824 22.8817C383.579 23.8414 383.963 25.0087 383.963 26.4035H384.664C384.664 24.8712 384.238 23.5462 383.374 22.4485C382.514 21.3549 381.238 20.5116 379.577 19.9023L379.335 20.5601ZM383.963 26.4035C383.963 28.3763 383.125 29.9707 381.414 31.2103L381.825 31.7777C383.706 30.4155 384.664 28.6162 384.664 26.4035H383.963ZM381.416 31.2093C379.694 32.4427 377.453 33.0739 374.663 33.0739V33.7745C377.557 33.7745 379.953 33.119 381.824 31.7788L381.416 31.2093ZM374.663 33.0739C372.781 33.0739 371.12 32.742 369.674 32.087L369.385 32.7252C370.936 33.4277 372.698 33.7745 374.663 33.7745V33.0739ZM369.678 32.0886C368.241 31.4181 367.124 30.5144 366.315 29.3815L365.745 29.7887C366.632 31.0314 367.849 32.0083 369.381 32.7236L369.678 32.0886ZM366.316 29.3831C365.507 28.2364 365.107 27.0124 365.107 25.7035H364.407C364.407 27.1662 364.856 28.5299 365.744 29.7871L366.316 29.3831ZM364.757 26.0538H370.569V25.3532H364.757V26.0538ZM370.219 25.7217C370.28 26.8954 370.721 27.8315 371.563 28.4835L371.992 27.9293C371.336 27.4217 370.971 26.6893 370.919 25.6853L370.219 25.7217ZM371.563 28.4835C372.392 29.1242 373.479 29.4263 374.79 29.4263V28.7257C373.583 28.7257 372.663 28.4481 371.992 27.9293L371.563 28.4835ZM374.79 29.4263C375.997 29.4263 376.969 29.2025 377.649 28.7003L377.233 28.1366C376.726 28.5112 375.929 28.7257 374.79 28.7257V29.4263ZM377.65 28.6995C378.342 28.1849 378.703 27.4963 378.703 26.658H378.003C378.003 27.262 377.756 27.7471 377.232 28.1375L377.65 28.6995ZM402.024 30.6668L402.374 30.6414L402.31 29.7682L401.754 30.4442L402.024 30.6668ZM390.104 31.3031L389.845 31.5389L389.846 31.5403L390.104 31.3031ZM388.131 25.0884H387.781L387.781 25.092L388.131 25.0884ZM388.131 10.05V9.69972H387.781V10.05H388.131ZM394.261 10.05H394.611V9.69972H394.261V10.05ZM401.812 26.2974L402.121 26.4637L402.162 26.3859V26.2974H401.812ZM401.812 10.05V9.69972H401.462V10.05H401.812ZM407.963 10.05H408.314V9.69972H407.963V10.05ZM407.963 33V33.3503H408.314V33H407.963ZM402.194 33L401.845 33.0254L401.868 33.3503H402.194V33ZM401.754 30.4442C400.316 32.1911 398.328 33.0739 395.746 33.0739V33.7745C398.509 33.7745 400.706 32.8191 402.295 30.8895L401.754 30.4442ZM395.746 33.0739C393.354 33.0739 391.579 32.3889 390.362 31.066L389.846 31.5403C391.231 33.0455 393.217 33.7745 395.746 33.7745V33.0739ZM390.363 31.0674C389.155 29.7395 388.509 27.7643 388.482 25.0848L387.781 25.092C387.81 27.8707 388.48 30.0387 389.845 31.5389L390.363 31.0674ZM388.482 25.0884V10.05H387.781V25.0884H388.482ZM388.131 10.4004H394.261V9.69972H388.131V10.4004ZM393.911 10.05V24.8763H394.611V10.05H393.911ZM393.911 24.8763C393.911 26.1175 394.193 27.1138 394.819 27.8007C395.45 28.4938 396.376 28.8112 397.528 28.8112V28.1106C396.502 28.1106 395.794 27.8306 395.337 27.3288C394.874 26.8208 394.611 26.0248 394.611 24.8763H393.911ZM397.528 28.8112C399.694 28.8112 401.265 28.0511 402.121 26.4637L401.504 26.1312C400.804 27.4284 399.518 28.1106 397.528 28.1106V28.8112ZM402.162 26.2974V10.05H401.462V26.2974H402.162ZM401.812 10.4004H407.963V9.69972H401.812V10.4004ZM407.613 10.05V33H408.314V10.05H407.613ZM407.963 32.6497H402.194V33.3503H407.963V32.6497ZM402.543 32.9746L402.374 30.6414L401.675 30.6922L401.845 33.0254L402.543 32.9746ZM418.335 10.05L418.685 10.0241L418.661 9.69972H418.335V10.05ZM418.526 12.6165L418.177 12.6425L418.242 13.5192L418.798 12.8379L418.526 12.6165ZM431.21 13.1256L430.893 13.2753L431.153 13.8245L431.498 13.3247L431.21 13.1256ZM443.661 11.8105L443.392 12.0351L443.393 12.0363L443.661 11.8105ZM445.485 33V33.3503H445.835V33H445.485ZM439.334 33H438.984V33.3503H439.334V33ZM438.57 15.5224L438.302 15.7473L438.304 15.7504L438.57 15.5224ZM432.059 17.2405L431.734 17.1095L431.708 17.1727L431.708 17.2409L432.059 17.2405ZM432.08 33V33.3503H432.431L432.43 32.9995L432.08 33ZM425.95 33H425.6V33.3503H425.95V33ZM418.717 16.7738L418.409 16.6076L418.367 16.6854V16.7738H418.717ZM418.717 33V33.3503H419.067V33H418.717ZM412.587 33H412.237V33.3503H412.587V33ZM412.587 10.05V9.69972H412.237V10.05H412.587ZM417.986 10.076L418.177 12.6425L418.876 12.5905L418.685 10.0241L417.986 10.076ZM418.798 12.8379C420.352 10.9327 422.447 9.97614 425.123 9.97614V9.27551C422.255 9.27551 419.953 10.3128 418.255 12.3951L418.798 12.8379ZM425.123 9.97614C426.555 9.97614 427.737 10.2587 428.686 10.8045C429.633 11.3485 430.369 12.1664 430.893 13.2753L431.527 12.9759C430.948 11.7516 430.119 10.8196 429.036 10.1971C427.956 9.57619 426.646 9.27551 425.123 9.27551V9.97614ZM431.498 13.3247C433.041 11.0919 435.228 9.97614 438.104 9.97614V9.27551C435.012 9.27551 432.603 10.4929 430.922 12.9265L431.498 13.3247ZM438.104 9.97614C440.523 9.97614 442.262 10.6815 443.392 12.035L443.93 11.586C442.628 10.0266 440.662 9.27551 438.104 9.27551V9.97614ZM443.393 12.0363C444.534 13.389 445.135 15.4703 445.135 18.3434H445.835C445.835 15.3907 445.22 13.1167 443.929 11.5847L443.393 12.0363ZM445.135 18.3434V33H445.835V18.3434H445.135ZM445.485 32.6497H439.334V33.3503H445.485V32.6497ZM439.684 33V18.3646H438.984V33H439.684ZM439.684 18.3646C439.684 17.0314 439.426 15.9822 438.836 15.2944L438.304 15.7504C438.733 16.2504 438.984 17.096 438.984 18.3646H439.684ZM438.839 15.2975C438.231 14.5716 437.203 14.26 435.877 14.26V14.9607C437.123 14.9607 437.891 15.2571 438.302 15.7473L438.839 15.2975ZM435.877 14.26C434.9 14.26 434.05 14.4936 433.345 14.9794C432.64 15.4647 432.107 16.1834 431.734 17.1095L432.384 17.3715C432.717 16.5441 433.174 15.9478 433.742 15.5564C434.31 15.1654 435.015 14.9607 435.877 14.9607V14.26ZM431.708 17.2409L431.73 33.0005L432.43 32.9995L432.409 17.24L431.708 17.2409ZM432.08 32.6497H425.95V33.3503H432.08V32.6497ZM426.3 33V18.3858H425.6V33H426.3ZM426.3 18.3858C426.3 17.025 426.035 15.9587 425.428 15.2696L424.902 15.7328C425.342 16.2315 425.6 17.0883 425.6 18.3858H426.3ZM425.428 15.2696C424.808 14.5653 423.793 14.26 422.493 14.26V14.9607C423.709 14.9607 424.476 15.2492 424.902 15.7328L425.428 15.2696ZM422.493 14.26C421.574 14.26 420.762 14.4508 420.07 14.8473C419.377 15.2444 418.824 15.8365 418.409 16.6076L419.025 16.9401C419.387 16.2688 419.853 15.7792 420.418 15.4552C420.985 15.1305 421.672 14.9607 422.493 14.9607V14.26ZM418.367 16.7738V33H419.067V16.7738H418.367ZM418.717 32.6497H412.587V33.3503H418.717V32.6497ZM412.938 33V10.05H412.237V33H412.938ZM412.587 10.4004H418.335V9.69972H412.587V10.4004ZM452.548 30.3275L452.303 30.5777L452.304 30.5785L452.548 30.3275ZM450.724 15.3103L451.038 15.465L451.039 15.464L450.724 15.3103ZM454.5 11.1106L454.68 11.411L454.681 11.4105L454.5 11.1106ZM467.502 12.5953L467.242 12.8307L467.243 12.8317L467.502 12.5953ZM470.217 23.5188V23.8691H470.567V23.5188H470.217ZM455.602 23.5188V23.1685H455.203L455.255 23.5647L455.602 23.5188ZM457.384 27.1246L457.148 27.3832L457.15 27.3848L457.384 27.1246ZM466.717 25.9156L466.978 25.6823L466.698 25.3687L466.44 25.7007L466.717 25.9156ZM469.729 29.2881L470.015 29.4903L470.176 29.2627L469.99 29.0548L469.729 29.2881ZM465.996 32.3425L466.142 32.6608L466.144 32.6597L465.996 32.3425ZM457.108 15.8193L456.852 15.5806L456.85 15.583L457.108 15.8193ZM455.666 19.3403L455.319 19.2921L455.264 19.6906H455.666V19.3403ZM464.193 19.3403V19.6906H464.543V19.3403H464.193ZM464.193 18.8525H464.543L464.543 18.8452L464.193 18.8525ZM463.09 15.7133L462.835 15.9537L462.837 15.9561L463.09 15.7133ZM460.778 33.0739C457.49 33.0739 454.839 32.0684 452.792 30.0764L452.304 30.5785C454.499 32.7155 457.335 33.7745 460.778 33.7745V33.0739ZM452.793 30.0772C450.765 28.0895 449.738 25.4353 449.738 22.0765H449.037C449.037 25.59 450.118 28.4364 452.303 30.5777L452.793 30.0772ZM449.738 22.0765V21.4826H449.037V22.0765H449.738ZM449.738 21.4826C449.738 19.2237 450.174 17.2204 451.038 15.465L450.41 15.1556C449.492 17.0201 449.037 19.1317 449.037 21.4826H449.738ZM451.039 15.464C451.902 13.6963 453.116 12.3493 454.68 11.411L454.319 10.8102C452.631 11.8232 451.328 13.2761 450.409 15.1566L451.039 15.464ZM454.681 11.4105C456.261 10.4566 458.064 9.97614 460.099 9.97614V9.27551C457.949 9.27551 456.018 9.78483 454.319 10.8106L454.681 11.4105ZM460.099 9.97614C463.158 9.97614 465.524 10.9371 467.242 12.8307L467.761 12.3599C465.887 10.2942 463.318 9.27551 460.099 9.27551V9.97614ZM467.243 12.8317C468.976 14.7268 469.866 17.4379 469.866 21.016H470.567C470.567 17.3258 469.647 14.4231 467.76 12.3589L467.243 12.8317ZM469.866 21.016V23.5188H470.567V21.016H469.866ZM470.217 23.1685H455.602V23.8691H470.217V23.1685ZM455.255 23.5647C455.462 25.1343 456.089 26.4155 457.148 27.3832L457.621 26.8661C456.699 26.0238 456.138 24.9012 455.95 23.473L455.255 23.5647ZM457.15 27.3848C458.226 28.3554 459.579 28.8324 461.181 28.8324V28.1318C459.728 28.1318 458.55 27.7038 457.619 26.8644L457.15 27.3848ZM461.181 28.8324C463.639 28.8324 465.591 27.9354 466.993 26.1305L466.44 25.7007C465.184 27.3178 463.445 28.1318 461.181 28.1318V28.8324ZM466.456 26.149L469.467 29.5215L469.99 29.0548L466.978 25.6823L466.456 26.149ZM469.443 29.086C468.562 30.3329 467.367 31.3134 465.847 32.0252L466.144 32.6597C467.764 31.901 469.058 30.8452 470.015 29.4903L469.443 29.086ZM465.849 32.0241C464.33 32.7221 462.642 33.0739 460.778 33.0739V33.7745C462.732 33.7745 464.522 33.4052 466.142 32.6608L465.849 32.0241ZM460.078 14.2388C458.774 14.2388 457.688 14.6828 456.852 15.5806L457.365 16.0581C458.056 15.3156 458.95 14.9394 460.078 14.9394V14.2388ZM456.85 15.583C456.037 16.4722 455.537 17.7211 455.319 19.2921L456.013 19.3885C456.219 17.9052 456.681 16.8068 457.367 16.0557L456.85 15.583ZM455.666 19.6906H464.193V18.99H455.666V19.6906ZM464.543 19.3403V18.8525H463.842V19.3403H464.543ZM464.543 18.8452C464.514 17.4294 464.128 16.2878 463.342 15.4705L462.837 15.9561C463.465 16.6094 463.815 17.5605 463.843 18.8598L464.543 18.8452ZM463.345 15.4729C462.555 14.6359 461.448 14.2388 460.078 14.2388V14.9394C461.309 14.9394 462.211 15.2918 462.835 15.9537L463.345 15.4729ZM485.022 24.8975L484.842 25.1985L484.849 25.2024L485.022 24.8975ZM481.458 23.7309L481.386 24.0738L481.387 24.074L481.458 23.7309ZM475.795 11.6833L476.015 11.9559L476.015 11.9557L475.795 11.6833ZM489.412 11.6833L489.195 11.9583L489.196 11.9592L489.412 11.6833ZM492.042 17.0284V17.3787H492.393V17.0284H492.042ZM485.913 17.0284H485.562V17.3787H485.913V17.0284ZM485.064 14.8649L484.813 15.1095L484.816 15.1126L485.064 14.8649ZM480.122 18.1313L479.928 18.4229L479.935 18.4277L480.122 18.1313ZM483.388 19.2131L483.319 19.5563L483.322 19.5569L483.388 19.2131ZM487.249 20.2312L487.369 19.9023L487.369 19.9021L487.249 20.2312ZM489.412 31.494L489.616 31.7788L489.618 31.7777L489.412 31.494ZM477.322 32.4061L477.174 32.7236L477.178 32.7252L477.322 32.4061ZM473.822 29.5851L473.536 29.7871L473.537 29.7887L473.822 29.5851ZM472.55 25.7035V25.3532H472.199V25.7035H472.55ZM478.362 25.7035L478.711 25.6853L478.694 25.3532H478.362V25.7035ZM485.234 28.4185L485.442 28.7004L485.443 28.6995L485.234 28.4185ZM486.496 26.658C486.496 25.7612 486.034 25.0679 485.194 24.5927L484.849 25.2024C485.508 25.5756 485.796 26.0559 485.796 26.658H486.496ZM485.201 24.5966C484.414 24.1272 483.178 23.7291 481.529 23.3879L481.387 24.074C483.019 24.4115 484.159 24.7911 484.842 25.1984L485.201 24.5966ZM481.53 23.3881C478.829 22.8213 476.847 21.972 475.545 20.8657C474.256 19.7708 473.621 18.4144 473.621 16.7738H472.921C472.921 18.6259 473.65 20.1754 475.091 21.3996C476.518 22.6123 478.629 23.4952 481.386 24.0738L481.53 23.3881ZM473.621 16.7738C473.621 14.8508 474.409 13.2516 476.015 11.9559L475.575 11.4106C473.816 12.8299 472.921 14.6244 472.921 16.7738H473.621ZM476.015 11.9557C477.635 10.646 479.764 9.97614 482.434 9.97614V9.27551C479.645 9.27551 477.348 9.97722 475.575 11.4108L476.015 11.9557ZM482.434 9.97614C485.293 9.97614 487.535 10.6489 489.195 11.9583L489.629 11.4082C487.811 9.97437 485.401 9.27551 482.434 9.27551V9.97614ZM489.196 11.9592C490.867 13.2656 491.692 14.9463 491.692 17.0284H492.393C492.393 14.7269 491.465 12.8441 489.628 11.4073L489.196 11.9592ZM492.042 16.678H485.913V17.3787H492.042V16.678ZM486.263 17.0284C486.263 16.0685 485.95 15.2551 485.312 14.6171L484.816 15.1126C485.31 15.6059 485.562 16.2347 485.562 17.0284H486.263ZM485.315 14.6202C484.657 13.9461 483.664 13.6449 482.413 13.6449V14.3455C483.566 14.3455 484.34 14.6241 484.813 15.1095L485.315 14.6202ZM482.413 13.6449C481.332 13.6449 480.443 13.889 479.793 14.425L480.239 14.9654C480.72 14.5681 481.429 14.3455 482.413 14.3455V13.6449ZM479.793 14.425C479.148 14.9568 478.817 15.6491 478.817 16.4769H479.518C479.518 15.8623 479.752 15.3668 480.239 14.9654L479.793 14.425ZM478.817 16.4769C478.817 17.2891 479.208 17.9433 479.928 18.4228L480.316 17.8398C479.763 17.4709 479.518 17.0221 479.518 16.4769H478.817ZM479.935 18.4277C480.642 18.8733 481.784 19.2436 483.319 19.5563L483.458 18.8698C481.939 18.5603 480.903 18.2094 480.309 17.835L479.935 18.4277ZM483.322 19.5569C484.837 19.8516 486.105 20.1867 487.129 20.5603L487.369 19.9021C486.3 19.512 484.994 19.1684 483.455 18.8692L483.322 19.5569ZM487.128 20.5601C488.705 21.1385 489.858 21.9178 490.616 22.8817C491.372 23.8414 491.756 25.0087 491.756 26.4035H492.456C492.456 24.8712 492.031 23.5462 491.167 22.4485C490.306 21.3549 489.031 20.5116 487.369 19.9023L487.128 20.5601ZM491.756 26.4035C491.756 28.3763 490.918 29.9707 489.207 31.2103L489.618 31.7777C491.498 30.4155 492.456 28.6162 492.456 26.4035H491.756ZM489.208 31.2093C487.487 32.4427 485.245 33.0739 482.455 33.0739V33.7745C485.35 33.7745 487.746 33.119 489.616 31.7788L489.208 31.2093ZM482.455 33.0739C480.574 33.0739 478.913 32.742 477.467 32.087L477.178 32.7252C478.729 33.4277 480.491 33.7745 482.455 33.7745V33.0739ZM477.47 32.0886C476.033 31.4181 474.917 30.5144 474.108 29.3815L473.537 29.7887C474.425 31.0314 475.641 32.0083 477.174 32.7236L477.47 32.0886ZM474.109 29.3831C473.299 28.2364 472.9 27.0124 472.9 25.7035H472.199C472.199 27.1662 472.649 28.5299 473.536 29.7871L474.109 29.3831ZM472.55 26.0538H478.362V25.3532H472.55V26.0538ZM478.012 25.7217C478.073 26.8954 478.513 27.8315 479.356 28.4835L479.785 27.9293C479.129 27.4217 478.764 26.6893 478.711 25.6853L478.012 25.7217ZM479.356 28.4835C480.184 29.1242 481.272 29.4263 482.582 29.4263V28.7257C481.376 28.7257 480.456 28.4481 479.785 27.9293L479.356 28.4835ZM482.582 29.4263C483.79 29.4263 484.761 29.2025 485.442 28.7003L485.026 28.1366C484.518 28.5112 483.722 28.7257 482.582 28.7257V29.4263ZM485.443 28.6995C486.134 28.1849 486.496 27.4963 486.496 26.658H485.796C485.796 27.262 485.549 27.7471 485.025 28.1375L485.443 28.6995Z" fill="white"/>
</svg>
