<svg width="767" height="24" viewBox="0 0 767 24" fill="none" xmlns="http://www.w3.org/2000/svg">
<path opacity="0.3" fill-rule="evenodd" clip-rule="evenodd" d="M23.7567 2.56066C24.3425 1.97487 24.3425 1.02513 23.7567 0.43934C23.1709 -0.146447 22.2212 -0.146447 21.6354 0.43934L12.196 9.87868L2.7567 0.43934C2.17092 -0.146447 1.22117 -0.146447 0.635385 0.43934C0.0495982 1.02513 0.0495982 1.97487 0.635385 2.56066L11.1354 13.0607C11.7212 13.6464 12.6709 13.6464 13.2567 13.0607L23.7567 2.56066ZM23.5607 13.0588C24.1464 12.473 24.1464 11.5233 23.5607 10.9375C22.9749 10.3517 22.0251 10.3517 21.4393 10.9375L12 20.3768L2.56066 10.9375C1.97487 10.3517 1.02513 10.3517 0.43934 10.9375C-0.146447 11.5233 -0.146447 12.473 0.43934 13.0588L10.9393 23.5588C11.5251 24.1446 12.4749 24.1446 13.0607 23.5588L23.5607 13.0588Z" fill="white"/>
<path opacity="0.3" fill-rule="evenodd" clip-rule="evenodd" d="M209.085 2.56066C209.671 1.97487 209.671 1.02513 209.085 0.43934C208.499 -0.146447 207.55 -0.146447 206.964 0.43934L197.525 9.87868L188.085 0.43934C187.499 -0.146447 186.55 -0.146447 185.964 0.43934C185.378 1.02513 185.378 1.97487 185.964 2.56066L196.464 13.0607C197.05 13.6464 197.999 13.6464 198.585 13.0607L209.085 2.56066ZM209.115 13.0606C209.701 12.4748 209.701 11.5251 209.115 10.9393C208.53 10.3535 207.58 10.3535 206.994 10.9393L197.555 20.3786L188.115 10.9393C187.53 10.3535 186.58 10.3535 185.994 10.9393C185.408 11.5251 185.408 12.4748 185.994 13.0606L196.494 23.5606C197.08 24.1464 198.029 24.1464 198.615 23.5606L209.115 13.0606Z" fill="white"/>
<path opacity="0.3" fill-rule="evenodd" clip-rule="evenodd" d="M394.444 2.56066C395.03 1.97487 395.03 1.02513 394.444 0.43934C393.858 -0.146447 392.908 -0.146447 392.323 0.43934L382.883 9.87868L373.444 0.43934C372.858 -0.146447 371.908 -0.146447 371.323 0.43934C370.737 1.02513 370.737 1.97487 371.323 2.56066L381.823 13.0607C382.408 13.6464 383.358 13.6464 383.944 13.0607L394.444 2.56066ZM395.095 13.0405C395.681 12.4547 395.681 11.5049 395.095 10.9191C394.51 10.3334 393.56 10.3334 392.974 10.9191L383.535 20.3585L374.095 10.9191C373.51 10.3334 372.56 10.3334 371.974 10.9191C371.388 11.5049 371.388 12.4547 371.974 13.0405L382.474 23.5405C383.06 24.1262 384.01 24.1262 384.595 23.5405L395.095 13.0405Z" fill="white"/>
<path opacity="0.3" fill-rule="evenodd" clip-rule="evenodd" d="M580.424 2.56066C581.01 1.97487 581.01 1.02513 580.424 0.43934C579.838 -0.146447 578.888 -0.146447 578.303 0.43934L568.863 9.87868L559.424 0.43934C558.838 -0.146447 557.888 -0.146447 557.303 0.43934C556.717 1.02513 556.717 1.97487 557.303 2.56066L567.803 13.0607C568.388 13.6464 569.338 13.6464 569.924 13.0607L580.424 2.56066ZM580.828 13.0528C581.414 12.4671 581.414 11.5173 580.828 10.9315C580.242 10.3457 579.293 10.3457 578.707 10.9315L569.267 20.3709L559.828 10.9315C559.242 10.3457 558.293 10.3457 557.707 10.9315C557.121 11.5173 557.121 12.4671 557.707 13.0528L568.207 23.5528C568.793 24.1386 569.742 24.1386 570.328 23.5528L580.828 13.0528Z" fill="white"/>
<path opacity="0.3" fill-rule="evenodd" clip-rule="evenodd" d="M766.157 2.56066C766.742 1.97487 766.742 1.02513 766.157 0.43934C765.571 -0.146447 764.621 -0.146447 764.035 0.43934L754.596 9.87868L745.157 0.43934C744.571 -0.146447 743.621 -0.146447 743.035 0.43934C742.45 1.02513 742.45 1.97487 743.035 2.56066L753.535 13.0607C754.121 13.6464 755.071 13.6464 755.657 13.0607L766.157 2.56066ZM766.561 13.0528C767.146 12.4671 767.146 11.5173 766.561 10.9315C765.975 10.3457 765.025 10.3457 764.439 10.9315L755 20.3709L745.561 10.9315C744.975 10.3457 744.025 10.3457 743.439 10.9315C742.854 11.5173 742.854 12.4671 743.439 13.0528L753.939 23.5528C754.525 24.1386 755.475 24.1386 756.061 23.5528L766.561 13.0528Z" fill="white"/>
</svg>
